<svg width="343.000000" height="284.925903" viewBox="0 0 343 284.926" fill="none" xmlns="http://www.w3.org/2000/svg" xmlns:xlink="http://www.w3.org/1999/xlink">
	<desc>
			Created with Pixso.
	</desc>
	<defs>
		<clipPath id="clip17_6147">
			<rect id="Обложка карточки" rx="29.713888" width="342.427765" height="284.353699" transform="translate(0.286112 0.286112)" fill="white" fill-opacity="0"/>
		</clipPath>
	</defs>
	<rect id="Обложка карточки" rx="29.713888" width="342.427765" height="284.353699" transform="translate(0.286112 0.286112)" fill="#271A58" fill-opacity="1.000000"/>
	<g clip-path="url(#clip17_6147)">
		<rect id="Frame 2043683080" rx="19.712276" width="91.496162" height="91.496162" transform="translate(12.556278 -86.810905) rotate(10.000000)" fill="#D9B6FF" fill-opacity="1.000000"/>
		<rect id="Frame 2043683080" rx="19.712276" width="91.496162" height="91.496162" transform="translate(12.556278 -86.810905) rotate(10.000000)" stroke="#271A58" stroke-opacity="1.000000" stroke-width="0.575447"/>
		<rect id="Frame 2043683097" rx="19.712276" width="91.496162" height="91.496162" transform="translate(110.099251 -69.611443) rotate(10.000000)" fill="#1FA46C" fill-opacity="1.000000"/>
		<rect id="Frame 2043683097" rx="19.712276" width="91.496162" height="91.496162" transform="translate(110.099251 -69.611443) rotate(10.000000)" stroke="#271A58" stroke-opacity="1.000000" stroke-width="0.575447"/>
		<rect id="Frame 2043683096" rx="19.712276" width="91.496162" height="91.496162" transform="translate(207.643188 -52.411983) rotate(10.000000)" fill="#565EEF" fill-opacity="1.000000"/>
		<rect id="Frame 2043683096" rx="19.712276" width="91.496162" height="91.496162" transform="translate(207.643188 -52.411983) rotate(10.000000)" stroke="#271A58" stroke-opacity="1.000000" stroke-width="0.575447"/>
		<rect id="Frame 2043683099" rx="19.712276" width="91.496162" height="91.496162" transform="translate(305.186157 -35.212276) rotate(10.000000)" fill="#00C1FF" fill-opacity="1.000000"/>
		<rect id="Frame 2043683099" rx="19.712276" width="91.496162" height="91.496162" transform="translate(305.186157 -35.212276) rotate(10.000000)" stroke="#271A58" stroke-opacity="1.000000" stroke-width="0.575447"/>
		<rect id="Frame 2043683103" rx="19.712276" width="91.496162" height="91.496162" transform="translate(-4.631222 10.662235) rotate(10.000000)" fill="#F25050" fill-opacity="1.000000"/>
		<rect id="Frame 2043683103" rx="19.712276" width="91.496162" height="91.496162" transform="translate(-4.631222 10.662235) rotate(10.000000)" stroke="#271A58" stroke-opacity="1.000000" stroke-width="0.575447"/>
		<rect id="Frame 2043683102" rx="19.712276" width="91.496162" height="91.496162" transform="translate(92.912727 27.861698) rotate(10.000000)" fill="#FFC700" fill-opacity="1.000000"/>
		<rect id="Frame 2043683102" rx="19.712276" width="91.496162" height="91.496162" transform="translate(92.912727 27.861698) rotate(10.000000)" stroke="#271A58" stroke-opacity="1.000000" stroke-width="0.575447"/>
		<rect id="Frame 2043683105" rx="19.712276" width="91.496162" height="91.496162" transform="translate(190.455688 45.061405) rotate(10.000000)" fill="#99D100" fill-opacity="1.000000"/>
		<rect id="Frame 2043683105" rx="19.712276" width="91.496162" height="91.496162" transform="translate(190.455688 45.061405) rotate(10.000000)" stroke="#271A58" stroke-opacity="1.000000" stroke-width="0.575447"/>
		<rect id="Frame 2043683107" rx="19.712276" width="91.496162" height="91.496162" transform="translate(287.998657 62.261112) rotate(10.000000)" fill="#AD61FF" fill-opacity="1.000000"/>
		<rect id="Frame 2043683107" rx="19.712276" width="91.496162" height="91.496162" transform="translate(287.998657 62.261112) rotate(10.000000)" stroke="#271A58" stroke-opacity="1.000000" stroke-width="0.575447"/>
		<rect id="Frame 2043683108" rx="19.712276" width="91.496162" height="91.496162" transform="translate(-21.818722 108.135628) rotate(10.000000)" fill="#565EEF" fill-opacity="1.000000"/>
		<rect id="Frame 2043683108" rx="19.712276" width="91.496162" height="91.496162" transform="translate(-21.818722 108.135628) rotate(10.000000)" stroke="#271A58" stroke-opacity="1.000000" stroke-width="0.575447"/>
		<rect id="Frame 2043683110" rx="19.712276" width="91.496162" height="91.496162" transform="translate(75.725227 125.335091) rotate(10.000000)" fill="#00C1FF" fill-opacity="1.000000"/>
		<rect id="Frame 2043683110" rx="19.712276" width="91.496162" height="91.496162" transform="translate(75.725227 125.335091) rotate(10.000000)" stroke="#271A58" stroke-opacity="1.000000" stroke-width="0.575447"/>
		<rect id="Frame 2043683112" rx="19.712276" width="91.496162" height="91.496162" transform="translate(173.268188 142.534790) rotate(10.000000)" fill="#FF6D00" fill-opacity="1.000000"/>
		<rect id="Frame 2043683112" rx="19.712276" width="91.496162" height="91.496162" transform="translate(173.268188 142.534790) rotate(10.000000)" stroke="#271A58" stroke-opacity="1.000000" stroke-width="0.575447"/>
		<rect id="Frame 2043683111" rx="19.712276" width="91.496162" height="91.496162" transform="translate(270.812134 159.734253) rotate(10.000000)" fill="#1FA46C" fill-opacity="1.000000"/>
		<rect id="Frame 2043683111" rx="19.712276" width="91.496162" height="91.496162" transform="translate(270.812134 159.734253) rotate(10.000000)" stroke="#271A58" stroke-opacity="1.000000" stroke-width="0.575447"/>
		<rect id="Frame 2043683115" rx="19.712276" width="91.496162" height="91.496162" transform="translate(-39.005245 205.608765) rotate(10.000000)" fill="#AD61FF" fill-opacity="1.000000"/>
		<rect id="Frame 2043683115" rx="19.712276" width="91.496162" height="91.496162" transform="translate(-39.005245 205.608765) rotate(10.000000)" stroke="#271A58" stroke-opacity="1.000000" stroke-width="0.575447"/>
		<rect id="Frame 2043683116" rx="19.712276" width="91.496162" height="91.496162" transform="translate(58.537724 222.808472) rotate(10.000000)" fill="#99D100" fill-opacity="1.000000"/>
		<rect id="Frame 2043683116" rx="19.712276" width="91.496162" height="91.496162" transform="translate(58.537724 222.808472) rotate(10.000000)" stroke="#271A58" stroke-opacity="1.000000" stroke-width="0.575447"/>
		<rect id="Frame 2043683117" rx="19.712276" width="91.496162" height="91.496162" transform="translate(156.081665 240.007935) rotate(10.000000)" fill="#FFC700" fill-opacity="1.000000"/>
		<rect id="Frame 2043683117" rx="19.712276" width="91.496162" height="91.496162" transform="translate(156.081665 240.007935) rotate(10.000000)" stroke="#271A58" stroke-opacity="1.000000" stroke-width="0.575447"/>
		<rect id="Frame 2043683118" rx="19.712276" width="91.496162" height="91.496162" transform="translate(253.624634 257.207397) rotate(10.000000)" fill="#D9B6FF" fill-opacity="1.000000"/>
		<rect id="Frame 2043683118" rx="19.712276" width="91.496162" height="91.496162" transform="translate(253.624634 257.207397) rotate(10.000000)" stroke="#271A58" stroke-opacity="1.000000" stroke-width="0.575447"/>
	</g>
</svg>
