<svg width="343.000000" height="284.925934" viewBox="0 0 343 284.926" fill="none" xmlns="http://www.w3.org/2000/svg" xmlns:xlink="http://www.w3.org/1999/xlink">
	<desc>
			Created with Pixso.
	</desc>
	<defs>
		<clipPath id="clip17_6027">
			<rect id="Обложка карточки" rx="29.713888" width="342.427765" height="284.353699" transform="translate(0.286112 0.286112)" fill="white" fill-opacity="0"/>
		</clipPath>
	</defs>
	<rect id="Обложка карточки" rx="29.713888" width="342.427765" height="284.353699" transform="translate(0.286112 0.286112)" fill="#FDAD00" fill-opacity="1.000000"/>
	<g clip-path="url(#clip17_6027)">
		<rect id="Frame 2043683076" rx="19.750000" width="220.932220" height="72.725060" transform="translate(14.614258 -90.480713) rotate(10.000001)" fill="#FFC700" fill-opacity="1.000000"/>
		<path id="36 − 6 = ?" d="M69.23 -49.51Q67.65 -50.49 65.69 -50.83Q62.49 -51.4 60.13 -50.24Q59.87 -50.11 59.62 -49.96Q60.3 -52.47 61.94 -53.71Q62.14 -53.86 62.35 -54Q62.66 -54.19 62.99 -54.34Q64.76 -55.14 67.08 -54.73Q69.92 -54.23 71.54 -52.6L75.06 -57.3Q73.84 -58.44 71.97 -59.26Q70.09 -60.08 67.91 -60.46Q63.89 -61.18 60.55 -60.07Q59.21 -59.64 58.04 -58.91Q56.31 -57.84 54.97 -56.14Q52.73 -53.3 51.96 -48.95Q50.94 -43.17 53.24 -39.46Q53.35 -39.28 53.47 -39.11Q54 -38.33 54.65 -37.68Q57.17 -35.13 61.49 -34.37Q64.29 -33.88 66.75 -34.54Q68.44 -35 69.76 -35.97Q70.35 -36.41 70.87 -36.95Q71.34 -37.44 71.71 -37.99Q72.68 -39.42 73.01 -41.28Q73.32 -43.03 72.93 -44.6Q72.79 -45.15 72.57 -45.67Q72.22 -46.52 71.7 -47.24Q70.97 -48.27 69.89 -49.06Q69.57 -49.3 69.23 -49.51ZM135.96 -37.75Q134.39 -38.72 132.42 -39.07Q129.22 -39.63 126.87 -38.47Q126.6 -38.34 126.35 -38.19Q127.03 -40.7 128.67 -41.95Q128.87 -42.1 129.08 -42.23Q129.39 -42.42 129.72 -42.57Q131.49 -43.37 133.82 -42.96Q136.65 -42.47 138.27 -40.84L141.8 -45.53Q140.57 -46.68 138.7 -47.49Q136.83 -48.31 134.65 -48.7Q130.62 -49.41 127.29 -48.31Q125.94 -47.87 124.78 -47.15Q123.05 -46.07 121.7 -44.37Q119.47 -41.53 118.7 -37.19Q117.67 -31.4 119.98 -27.69Q120.09 -27.51 120.2 -27.34Q120.73 -26.57 121.39 -25.91Q123.91 -23.37 128.23 -22.6Q131.03 -22.11 133.48 -22.77Q135.17 -23.24 136.49 -24.21Q137.09 -24.64 137.61 -25.19Q138.07 -25.67 138.45 -26.22Q139.41 -27.65 139.74 -29.51Q140.05 -31.26 139.66 -32.83Q139.53 -33.38 139.31 -33.91Q138.96 -34.75 138.44 -35.47Q137.7 -36.5 136.63 -37.29Q136.31 -37.53 135.96 -37.75ZM192.72 -24.37Q191.72 -23.33 191.4 -21.52L197.85 -20.38Q197.95 -20.96 198.24 -21.42Q198.45 -21.74 198.74 -22Q199.46 -22.64 200.88 -23.48Q202.17 -24.26 203.01 -24.91Q203.86 -25.57 204.56 -26.63Q205.28 -27.68 205.54 -29.16Q205.84 -30.83 205.36 -32.24Q204.92 -33.56 203.8 -34.65Q201.49 -36.91 197.18 -37.67Q193.34 -38.35 190.36 -37.41Q188.49 -36.82 187.02 -35.7Q186.17 -35.04 185.45 -34.2L190.35 -30.35Q190.99 -31.1 191.8 -31.56Q192.18 -31.78 192.59 -31.93Q192.95 -32.07 193.33 -32.15Q194.3 -32.35 195.35 -32.16Q196.75 -31.91 197.53 -31.12Q197.95 -30.68 198.09 -30.17Q198.2 -29.75 198.12 -29.27Q198.09 -29.08 198.02 -28.9Q197.83 -28.36 197.35 -27.93Q196.73 -27.35 195.51 -26.55Q193.74 -25.41 192.72 -24.37ZM48.02 -50.36Q46.67 -52.55 43.69 -53.74L49.95 -58.47L50.74 -62.96L32.39 -66.2L31.41 -60.66L41.42 -58.89L36.02 -54.79L35.22 -50.26L38.23 -49.73Q40.99 -49.24 41.56 -47.85Q41.79 -47.29 41.67 -46.58Q41.56 -45.97 41.23 -45.54Q40.86 -45.07 40.23 -44.81Q39.02 -44.31 37.17 -44.64Q35.36 -44.96 33.58 -45.83Q31.81 -46.71 30.51 -47.99L26.94 -43.04Q28.65 -41.5 31.17 -40.39Q32.83 -39.65 34.57 -39.2Q35.46 -38.96 36.37 -38.8Q40.02 -38.16 42.72 -38.9Q45.42 -39.63 46.97 -41.34Q47.8 -42.25 48.3 -43.32Q48.73 -44.25 48.92 -45.3Q49.23 -47.05 48.8 -48.59Q48.55 -49.48 48.06 -50.29Q48.04 -50.33 48.02 -50.36ZM172.94 -35.77L155.07 -38.93L154.13 -33.67L172.01 -30.51L172.94 -35.77ZM105.4 -42.97L87.52 -46.12L86.58 -40.83L104.46 -37.68L105.4 -42.97ZM64.15 -39.75Q63.19 -39.34 61.96 -39.56Q60.53 -39.81 59.73 -40.66Q59.62 -40.78 59.53 -40.9Q59.23 -41.3 59.07 -41.75Q58.82 -42.5 58.98 -43.38Q59.14 -44.3 59.66 -44.92Q59.96 -45.28 60.37 -45.54Q60.6 -45.68 60.86 -45.79Q61.83 -46.2 63.07 -45.98Q64.38 -45.75 65.15 -44.98Q65.3 -44.83 65.43 -44.67Q65.7 -44.32 65.85 -43.93Q66.15 -43.15 65.98 -42.18Q65.8 -41.14 65.2 -40.49Q64.94 -40.2 64.6 -39.99Q64.38 -39.85 64.15 -39.75ZM130.88 -27.98Q129.92 -27.57 128.7 -27.79Q127.26 -28.04 126.46 -28.9Q126.36 -29.01 126.26 -29.13Q125.96 -29.53 125.81 -29.98Q125.56 -30.73 125.72 -31.61Q125.88 -32.53 126.4 -33.16Q126.69 -33.51 127.1 -33.77Q127.34 -33.92 127.59 -34.02Q128.57 -34.43 129.8 -34.21Q131.11 -33.98 131.89 -33.21Q132.03 -33.07 132.16 -32.9Q132.43 -32.56 132.59 -32.16Q132.89 -31.38 132.72 -30.41Q132.53 -29.38 131.93 -28.72Q131.67 -28.43 131.33 -28.22Q131.12 -28.08 130.88 -27.98ZM171.32 -26.59L153.44 -29.74L152.51 -24.49L170.39 -21.33L171.32 -26.59ZM190.88 -12.28Q191.71 -11.59 192.93 -11.38Q194.24 -11.15 195.31 -11.55Q195.72 -11.71 196.1 -11.96Q196.8 -12.42 197.21 -13.06Q197.6 -13.67 197.74 -14.46Q197.91 -15.39 197.66 -16.2Q197.47 -16.81 197.06 -17.34Q196.84 -17.63 196.57 -17.87Q195.67 -18.67 194.27 -18.92Q192.85 -19.17 191.73 -18.71Q191.42 -18.57 191.12 -18.39Q190.58 -18.04 190.2 -17.56Q189.68 -16.87 189.51 -15.91Q189.37 -15.13 189.53 -14.41Q189.7 -13.67 190.19 -13Q190.49 -12.59 190.88 -12.28Z" fill="#FFFFFF" fill-opacity="1.000000" fill-rule="evenodd"/>
		<path id="36 − 6 = ?" d="M43.69 -53.74Q46.72 -52.53 48.06 -50.29Q49.41 -48.05 48.92 -45.3Q48.52 -43.05 46.97 -41.34Q45.42 -39.63 42.72 -38.9Q40.02 -38.16 36.37 -38.8Q33.68 -39.28 31.17 -40.39Q28.65 -41.5 26.94 -43.04L30.51 -47.99Q31.81 -46.71 33.58 -45.83Q35.36 -44.96 37.17 -44.64Q39.02 -44.31 40.23 -44.81Q41.44 -45.31 41.67 -46.58Q42.11 -49.05 38.23 -49.73L35.22 -50.26L36.02 -54.79L41.42 -58.89L31.41 -60.66L32.39 -66.2L50.74 -62.96L49.95 -58.47L43.69 -53.74ZM65.69 -50.83Q68.08 -50.41 69.89 -49.06Q71.72 -47.71 72.57 -45.67Q73.43 -43.63 73.01 -41.28Q72.55 -38.7 70.87 -36.95Q69.2 -35.21 66.75 -34.54Q64.29 -33.88 61.49 -34.37Q56.06 -35.33 53.47 -39.11Q50.89 -42.9 51.96 -48.95Q52.73 -53.3 54.97 -56.14Q57.22 -58.98 60.55 -60.07Q63.89 -61.18 67.91 -60.46Q70.09 -60.08 71.97 -59.26Q73.84 -58.44 75.06 -57.3L71.54 -52.6Q69.92 -54.23 67.08 -54.73Q64.33 -55.22 62.35 -54Q60.38 -52.77 59.62 -49.96Q62.13 -51.46 65.69 -50.83ZM61.96 -39.56Q63.49 -39.29 64.6 -39.99Q65.72 -40.69 65.98 -42.18Q66.24 -43.63 65.43 -44.67Q64.62 -45.71 63.07 -45.98Q61.51 -46.26 60.37 -45.54Q59.24 -44.82 58.98 -43.38Q58.73 -41.96 59.53 -40.9Q60.34 -39.84 61.96 -39.56ZM87.52 -46.12L105.4 -42.97L104.46 -37.68L86.58 -40.83L87.52 -46.12ZM132.42 -39.07Q134.81 -38.64 136.63 -37.29Q138.46 -35.95 139.31 -33.91Q140.16 -31.87 139.74 -29.51Q139.29 -26.94 137.61 -25.19Q135.94 -23.44 133.48 -22.77Q131.03 -22.11 128.23 -22.6Q122.79 -23.56 120.2 -27.34Q117.62 -31.13 118.7 -37.19Q119.47 -41.53 121.7 -44.37Q123.95 -47.22 127.29 -48.31Q130.62 -49.41 134.65 -48.7Q136.83 -48.31 138.7 -47.49Q140.57 -46.68 141.8 -45.53L138.27 -40.84Q136.65 -42.47 133.82 -42.96Q131.06 -43.45 129.08 -42.23Q127.12 -41.01 126.35 -38.19Q128.86 -39.69 132.42 -39.07ZM128.7 -27.79Q130.22 -27.52 131.33 -28.22Q132.45 -28.93 132.72 -30.41Q132.97 -31.87 132.16 -32.9Q131.36 -33.94 129.8 -34.21Q128.24 -34.49 127.1 -33.77Q125.97 -33.05 125.72 -31.61Q125.46 -30.19 126.26 -29.13Q127.07 -28.08 128.7 -27.79ZM155.07 -38.93L172.94 -35.77L172.01 -30.51L154.13 -33.67L155.07 -38.93ZM153.44 -29.74L171.32 -26.59L170.39 -21.33L152.51 -24.49L153.44 -29.74ZM191.4 -21.52Q191.72 -23.33 192.72 -24.37Q193.74 -25.41 195.51 -26.55Q196.73 -27.35 197.35 -27.93Q197.99 -28.51 198.12 -29.27Q198.31 -30.32 197.53 -31.12Q196.75 -31.91 195.35 -32.16Q193.89 -32.42 192.59 -31.93Q191.29 -31.45 190.35 -30.35L185.45 -34.2Q187.39 -36.48 190.36 -37.41Q193.34 -38.35 197.18 -37.67Q201.49 -36.91 203.8 -34.65Q206.11 -32.39 205.54 -29.16Q205.28 -27.68 204.56 -26.63Q203.86 -25.57 203.01 -24.91Q202.17 -24.26 200.88 -23.48Q199.46 -22.64 198.74 -22Q198.03 -21.36 197.85 -20.38L191.4 -21.52ZM192.93 -11.38Q191.15 -11.69 190.19 -13Q189.23 -14.31 189.51 -15.91Q189.8 -17.55 191.12 -18.39Q192.45 -19.24 194.27 -18.92Q196.08 -18.6 197.06 -17.34Q198.03 -16.09 197.74 -14.46Q197.46 -12.86 196.1 -11.96Q194.75 -11.06 192.93 -11.38Z" stroke="#202027" stroke-opacity="1.000000" stroke-width="0.575447"/>
		<rect id="Frame 2043683076" rx="19.750000" width="220.932220" height="72.725060" transform="translate(14.614258 -90.480713) rotate(10.000001)" stroke="#202027" stroke-opacity="1.000000" stroke-width="0.500000"/>
		<rect id="Frame 2043683094" rx="19.750000" width="198.932220" height="72.725060" transform="translate(239.538086 -50.820435) rotate(10.000001)" fill="#FFC700" fill-opacity="1.000000"/>
		<path id="4 ÷ 2 = ?" d="M341.18 14.42L342.19 8.73L332.39 7L337.97 3.42Q340.92 1.55 342.13 -0.13Q342.65 -0.85 343.02 -1.65Q343.5 -2.69 343.71 -3.86Q343.99 -5.47 343.63 -6.91Q343.47 -7.56 343.18 -8.17Q343.05 -8.44 342.9 -8.69Q341.96 -10.33 340.18 -11.48Q338.12 -12.82 335.21 -13.33Q331.55 -13.98 328.61 -13.04Q326.6 -12.39 325.07 -11.15Q324.36 -10.59 323.75 -9.89L328.57 -5.98Q329.28 -6.75 330.15 -7.18Q330.48 -7.35 330.83 -7.46Q331.18 -7.58 331.53 -7.64Q332.5 -7.82 333.54 -7.64Q335.13 -7.36 335.84 -6.52Q336.06 -6.26 336.19 -5.97Q336.48 -5.31 336.33 -4.45Q336.33 -4.42 336.32 -4.38Q336.14 -3.48 335.53 -2.67Q334.9 -1.83 333.29 -0.76L322.21 6.44L321.42 10.94L341.18 14.42ZM395.9 11.46Q394.89 12.49 394.57 14.31L401.03 15.45Q401.13 14.87 401.42 14.41Q401.62 14.08 401.92 13.82Q402.63 13.18 404.05 12.34Q405.35 11.57 406.18 10.91Q407.03 10.25 407.74 9.2Q408.46 8.15 408.72 6.67Q409.01 5 408.54 3.59Q408.1 2.27 406.98 1.17Q404.67 -1.09 400.35 -1.85Q396.51 -2.52 393.53 -1.59Q391.66 -1 390.2 0.13Q389.34 0.79 388.63 1.63L393.52 5.48Q394.17 4.73 394.97 4.26Q395.35 4.05 395.77 3.89Q396.13 3.76 396.5 3.68Q397.47 3.48 398.52 3.66Q399.93 3.91 400.7 4.71Q401.13 5.14 401.27 5.66Q401.38 6.08 401.3 6.55Q401.26 6.74 401.2 6.92Q401 7.46 400.53 7.9Q399.91 8.47 398.69 9.27Q396.91 10.41 395.9 11.46ZM274 -2.43L277.78 -1.77L278.78 -7.46L275.01 -8.13L275.78 -12.44L268.99 -13.63L268.23 -9.32L263.08 -10.23L276.04 -23.24L268.61 -24.55L254.41 -10.71L253.59 -6.03L267 -3.67L266.14 1.19L273.14 2.43L274 -2.43ZM300.07 -10.79Q300.76 -10.24 301.76 -10.07Q302.64 -9.91 303.43 -10.13Q303.95 -10.28 304.43 -10.6Q304.89 -10.9 305.21 -11.31Q305.73 -11.98 305.9 -12.92Q306.07 -13.89 305.79 -14.7Q305.63 -15.17 305.32 -15.58Q304.98 -16.03 304.55 -16.35Q303.88 -16.83 302.98 -16.99Q301.98 -17.17 301.12 -16.88Q300.69 -16.74 300.29 -16.47Q299.89 -16.2 299.6 -15.86Q299.04 -15.17 298.86 -14.17Q298.68 -13.18 298.96 -12.35Q299.11 -11.9 299.41 -11.48Q299.69 -11.08 300.07 -10.79ZM376.12 0.05L358.24 -3.1L357.31 2.16L375.19 5.31L376.12 0.05ZM310.39 -6.83L292.51 -9.98L291.57 -4.69L309.45 -1.53L310.39 -6.83ZM374.49 9.23L356.61 6.08L355.68 11.34L373.56 14.49L374.49 9.23ZM297.35 4.79Q298.04 5.32 299 5.49Q299.86 5.64 300.63 5.43Q301.18 5.28 301.68 4.94Q302.15 4.62 302.48 4.19Q302.98 3.52 303.15 2.6Q303.31 1.71 303.06 0.94Q302.9 0.43 302.56 -0.03Q302.23 -0.48 301.79 -0.79Q301.13 -1.27 300.23 -1.43Q299.19 -1.62 298.32 -1.32Q297.91 -1.18 297.54 -0.93Q297.16 -0.68 296.87 -0.35Q296.29 0.33 296.11 1.36Q295.94 2.32 296.2 3.14Q296.35 3.62 296.65 4.05Q296.96 4.48 297.35 4.79ZM394.05 23.55Q394.89 24.23 396.11 24.45Q397.41 24.68 398.48 24.28Q398.9 24.12 399.28 23.87Q399.97 23.41 400.38 22.77Q400.78 22.15 400.92 21.37Q401.08 20.43 400.83 19.62Q400.65 19.02 400.23 18.48Q400.01 18.2 399.75 17.96Q398.85 17.15 397.44 16.9Q396.03 16.65 394.9 17.12Q394.59 17.25 394.3 17.44Q393.75 17.79 393.38 18.27Q392.85 18.96 392.68 19.92Q392.54 20.7 392.71 21.41Q392.87 22.15 393.36 22.82Q393.67 23.23 394.05 23.55Z" fill="#FFFFFF" fill-opacity="1.000000" fill-rule="evenodd"/>
		<path id="4 ÷ 2 = ?" d="M277.78 -1.77L274 -2.43L273.14 2.43L266.14 1.19L267 -3.67L253.59 -6.03L254.41 -10.71L268.61 -24.55L276.04 -23.24L263.08 -10.23L268.23 -9.32L268.99 -13.63L275.78 -12.44L275.01 -8.13L278.78 -7.46L277.78 -1.77ZM301.76 -10.07Q300.23 -10.33 299.41 -11.48Q298.59 -12.64 298.86 -14.17Q299.13 -15.69 300.29 -16.47Q301.46 -17.26 302.98 -16.99Q304.47 -16.73 305.32 -15.58Q306.17 -14.45 305.9 -12.92Q305.63 -11.4 304.43 -10.6Q303.24 -9.8 301.76 -10.07ZM292.51 -9.98L310.39 -6.83L309.45 -1.53L291.57 -4.69L292.51 -9.98ZM299 5.49Q297.48 5.22 296.65 4.05Q295.84 2.88 296.11 1.36Q296.38 -0.17 297.54 -0.93Q298.7 -1.7 300.23 -1.43Q301.71 -1.17 302.56 -0.03Q303.41 1.11 303.15 2.6Q302.88 4.12 301.68 4.94Q300.49 5.75 299 5.49ZM342.19 8.73L341.18 14.42L321.42 10.94L322.21 6.44L333.29 -0.76Q334.9 -1.83 335.53 -2.67Q336.17 -3.51 336.33 -4.45Q336.55 -5.69 335.84 -6.52Q335.13 -7.36 333.54 -7.64Q332.12 -7.89 330.83 -7.46Q329.54 -7.04 328.57 -5.98L323.75 -9.89Q325.68 -12.09 328.61 -13.04Q331.55 -13.98 335.21 -13.33Q338.12 -12.82 340.18 -11.48Q342.24 -10.15 343.18 -8.17Q344.12 -6.18 343.71 -3.86Q343.34 -1.8 342.13 -0.13Q340.92 1.55 337.97 3.42L332.39 7L342.19 8.73ZM358.24 -3.1L376.12 0.05L375.19 5.31L357.31 2.16L358.24 -3.1ZM356.61 6.08L374.49 9.23L373.56 14.49L355.68 11.34L356.61 6.08ZM394.57 14.31Q394.89 12.49 395.9 11.46Q396.91 10.41 398.69 9.27Q399.91 8.47 400.53 7.9Q401.16 7.32 401.3 6.55Q401.48 5.5 400.7 4.71Q399.93 3.91 398.52 3.66Q397.07 3.41 395.77 3.89Q394.47 4.37 393.52 5.48L388.63 1.63Q390.56 -0.65 393.53 -1.59Q396.51 -2.52 400.35 -1.85Q404.67 -1.09 406.98 1.17Q409.29 3.44 408.72 6.67Q408.46 8.15 407.74 9.2Q407.03 10.25 406.18 10.91Q405.35 11.57 404.05 12.34Q402.63 13.18 401.92 13.82Q401.2 14.46 401.03 15.45L394.57 14.31ZM396.11 24.45Q394.33 24.13 393.36 22.82Q392.4 21.51 392.68 19.92Q392.97 18.28 394.3 17.44Q395.63 16.58 397.44 16.9Q399.26 17.22 400.23 18.48Q401.21 19.73 400.92 21.37Q400.64 22.96 399.28 23.87Q397.92 24.77 396.11 24.45Z" stroke="#202027" stroke-opacity="1.000000" stroke-width="0.575447"/>
		<rect id="Frame 2043683094" rx="19.750000" width="198.932220" height="72.725060" transform="translate(239.538086 -50.820435) rotate(10.000001)" stroke="#202027" stroke-opacity="1.000000" stroke-width="0.500000"/>
		<rect id="Frame 2043683071" rx="19.750000" width="241.932220" height="72.725060" transform="translate(0.826172 -12.275391) rotate(10.000001)" fill="#FFC700" fill-opacity="1.000000"/>
		<path id="100 ÷ 4 = ?" d="M35.46 40.64Q37.43 42.02 40.05 42.49Q42.5 42.92 44.72 42.38Q45.42 42.21 46.1 41.94Q46.61 41.74 47.09 41.49Q49.27 40.34 50.87 38.09Q52.83 35.35 53.56 31.25Q54.28 27.16 53.38 23.92Q52.65 21.26 51 19.44Q50.63 19.03 50.22 18.67Q49.66 18.17 49.04 17.76Q47.16 16.51 44.73 16.08Q42.13 15.63 39.82 16.24Q39.22 16.4 38.65 16.63Q38.18 16.81 37.73 17.04Q35.51 18.2 33.87 20.48Q31.91 23.22 31.18 27.31Q30.46 31.41 31.36 34.65Q32.11 37.36 33.81 39.2Q34.15 39.57 34.52 39.9Q34.97 40.3 35.46 40.64ZM60.3 45.02Q62.28 46.4 64.9 46.87Q67.35 47.3 69.56 46.76Q70.26 46.59 70.94 46.32Q71.45 46.12 71.93 45.87Q74.11 44.72 75.71 42.47Q77.68 39.73 78.4 35.63Q79.13 31.54 78.22 28.3Q77.49 25.64 75.84 23.82Q75.47 23.41 75.06 23.05Q74.5 22.55 73.88 22.14Q72 20.89 69.58 20.46Q66.98 20.01 64.66 20.62Q64.07 20.78 63.49 21.01Q63.02 21.19 62.57 21.42Q60.35 22.58 58.72 24.86Q56.75 27.6 56.03 31.69Q55.3 35.79 56.21 39.03Q56.96 41.74 58.65 43.58Q58.99 43.95 59.37 44.28Q59.81 44.68 60.3 45.02ZM199.82 57.52Q198.82 58.56 198.5 60.37L204.95 61.51Q205.05 60.93 205.35 60.47Q205.55 60.15 205.84 59.89Q206.56 59.24 207.98 58.41Q209.27 57.63 210.11 56.98Q210.96 56.31 211.67 55.26Q212.38 54.21 212.64 52.73Q212.94 51.06 212.47 49.65Q212.02 48.33 210.9 47.24Q208.59 44.98 204.28 44.22Q200.44 43.54 197.46 44.47Q195.59 45.07 194.12 46.19Q193.27 46.85 192.55 47.69L197.45 51.54Q198.09 50.79 198.9 50.33Q199.28 50.11 199.69 49.95Q200.06 49.82 200.43 49.74Q201.4 49.54 202.45 49.73Q203.85 49.98 204.63 50.77Q205.06 51.21 205.19 51.72Q205.31 52.14 205.22 52.62Q205.19 52.81 205.12 52.98Q204.93 53.52 204.45 53.96Q203.83 54.54 202.61 55.33Q200.84 56.47 199.82 57.52ZM25.13 39.33L29.62 13.95L17.73 11.85L16.75 17.39L21.46 18.23L17.95 38.07L25.13 39.33ZM142.85 55.08L146.62 55.74L147.63 50.05L143.86 49.39L144.62 45.07L137.84 43.88L137.08 48.19L131.92 47.28L144.88 34.27L137.46 32.96L123.26 46.8L122.43 51.48L135.85 53.84L134.99 58.7L141.99 59.94L142.85 55.08ZM100.33 34.63Q101.03 35.18 102.02 35.35Q102.91 35.51 103.69 35.29Q104.22 35.14 104.7 34.82Q105.15 34.51 105.47 34.1Q105.99 33.44 106.16 32.49Q106.33 31.53 106.05 30.71Q105.89 30.25 105.58 29.84Q105.25 29.38 104.81 29.07Q104.15 28.59 103.25 28.43Q102.24 28.25 101.39 28.53Q100.95 28.68 100.55 28.95Q100.16 29.21 99.87 29.56Q99.3 30.24 99.12 31.25Q98.95 32.23 99.22 33.07Q99.38 33.52 99.67 33.93Q99.96 34.33 100.33 34.63ZM42.38 36.59Q41.77 36.73 41.09 36.62Q40.38 36.49 39.82 36.12Q38.95 35.53 38.48 34.34Q37.73 32.39 38.4 28.58Q39.07 24.77 40.46 23.21Q41.3 22.25 42.32 22Q42.97 21.84 43.69 21.96Q44.37 22.08 44.89 22.43Q45.78 23.01 46.26 24.23Q47.02 26.17 46.34 29.98Q45.67 33.79 44.28 35.36Q43.42 36.35 42.38 36.59ZM67.23 40.97Q66.61 41.12 65.94 41Q65.22 40.87 64.67 40.5Q63.79 39.91 63.33 38.72Q62.57 36.77 63.24 32.96Q63.92 29.15 65.3 27.59Q66.15 26.63 67.17 26.38Q67.82 26.22 68.53 26.34Q69.21 26.46 69.74 26.81Q70.63 27.39 71.1 28.61Q71.86 30.55 71.19 34.36Q70.51 38.17 69.13 39.74Q68.27 40.73 67.23 40.97ZM180.04 46.11L162.17 42.96L161.23 48.22L179.11 51.37L180.04 46.11ZM110.65 38.59L92.77 35.44L91.83 40.73L109.71 43.88L110.65 38.59ZM178.42 55.3L160.54 52.14L159.61 57.4L177.49 60.56L178.42 55.3ZM97.61 50.21Q98.3 50.74 99.26 50.91Q100.13 51.06 100.89 50.85Q101.44 50.7 101.95 50.36Q102.41 50.04 102.74 49.6Q103.25 48.94 103.41 48.01Q103.57 47.12 103.33 46.36Q103.17 45.85 102.82 45.39Q102.49 44.94 102.06 44.63Q101.39 44.14 100.49 43.98Q99.45 43.8 98.58 44.1Q98.17 44.24 97.8 44.49Q97.42 44.74 97.13 45.07Q96.55 45.75 96.37 46.77Q96.2 47.74 96.46 48.56Q96.62 49.04 96.92 49.47Q97.22 49.9 97.61 50.21ZM197.98 69.61Q198.81 70.3 200.03 70.51Q201.34 70.74 202.41 70.34Q202.82 70.18 203.21 69.93Q203.9 69.47 204.31 68.83Q204.7 68.21 204.84 67.43Q205.01 66.5 204.76 65.69Q204.58 65.08 204.16 64.55Q203.94 64.26 203.67 64.02Q202.77 63.22 201.37 62.97Q199.95 62.72 198.83 63.18Q198.52 63.31 198.23 63.5Q197.68 63.85 197.31 64.33Q196.78 65.02 196.61 65.98Q196.47 66.76 196.63 67.48Q196.8 68.22 197.29 68.89Q197.59 69.3 197.98 69.61Z" fill="#FFFFFF" fill-opacity="1.000000" fill-rule="evenodd"/>
		<path id="100 ÷ 4 = ?" d="M29.62 13.95L25.13 39.33L17.95 38.07L21.46 18.23L16.75 17.39L17.73 11.85L29.62 13.95ZM40.05 42.49Q36.79 41.91 34.52 39.9Q32.27 37.9 31.36 34.65Q30.46 31.41 31.18 27.31Q31.91 23.22 33.87 20.48Q35.84 17.74 38.65 16.63Q41.46 15.51 44.73 16.08Q47.95 16.65 50.22 18.67Q52.48 20.67 53.38 23.92Q54.28 27.16 53.56 31.25Q52.83 35.35 50.87 38.09Q48.91 40.83 46.1 41.94Q43.28 43.05 40.05 42.49ZM41.09 36.62Q42.91 36.94 44.28 35.36Q45.67 33.79 46.34 29.98Q47.02 26.17 46.26 24.23Q45.51 22.28 43.69 21.96Q41.84 21.64 40.46 23.21Q39.07 24.77 38.4 28.58Q37.73 32.39 38.48 34.34Q39.24 36.29 41.09 36.62ZM64.9 46.87Q61.63 46.29 59.37 44.28Q57.11 42.28 56.21 39.03Q55.3 35.79 56.03 31.69Q56.75 27.6 58.72 24.86Q60.68 22.12 63.49 21.01Q66.31 19.89 69.58 20.46Q72.8 21.03 75.06 23.05Q77.33 25.05 78.22 28.3Q79.13 31.54 78.4 35.63Q77.68 39.73 75.71 42.47Q73.76 45.21 70.94 46.32Q68.12 47.43 64.9 46.87ZM65.94 41Q67.75 41.32 69.13 39.74Q70.51 38.17 71.19 34.36Q71.86 30.55 71.1 28.61Q70.35 26.66 68.53 26.34Q66.68 26.02 65.3 27.59Q63.92 29.15 63.24 32.96Q62.57 36.77 63.33 38.72Q64.09 40.67 65.94 41ZM102.02 35.35Q100.5 35.08 99.67 33.93Q98.85 32.78 99.12 31.25Q99.39 29.73 100.55 28.95Q101.72 28.16 103.25 28.43Q104.73 28.69 105.58 29.84Q106.43 30.97 106.16 32.49Q105.89 34.02 104.7 34.82Q103.51 35.61 102.02 35.35ZM92.77 35.44L110.65 38.59L109.71 43.88L91.83 40.73L92.77 35.44ZM99.26 50.91Q97.74 50.64 96.92 49.47Q96.1 48.3 96.37 46.77Q96.64 45.25 97.8 44.49Q98.97 43.72 100.49 43.98Q101.98 44.25 102.82 45.39Q103.67 46.53 103.41 48.01Q103.14 49.54 101.95 50.36Q100.75 51.17 99.26 50.91ZM146.62 55.74L142.85 55.08L141.99 59.94L134.99 58.7L135.85 53.84L122.43 51.48L123.26 46.8L137.46 32.96L144.88 34.27L131.92 47.28L137.08 48.19L137.84 43.88L144.62 45.07L143.86 49.39L147.63 50.05L146.62 55.74ZM162.17 42.96L180.04 46.11L179.11 51.37L161.23 48.22L162.17 42.96ZM160.54 52.14L178.42 55.3L177.49 60.56L159.61 57.4L160.54 52.14ZM198.5 60.37Q198.82 58.56 199.82 57.52Q200.84 56.47 202.61 55.33Q203.83 54.54 204.45 53.96Q205.09 53.38 205.22 52.62Q205.41 51.56 204.63 50.77Q203.85 49.98 202.45 49.73Q200.99 49.47 199.69 49.95Q198.39 50.44 197.45 51.54L192.55 47.69Q194.49 45.41 197.46 44.47Q200.44 43.54 204.28 44.22Q208.59 44.98 210.9 47.24Q213.22 49.5 212.64 52.73Q212.38 54.21 211.67 55.26Q210.96 56.31 210.11 56.98Q209.27 57.63 207.98 58.41Q206.56 59.24 205.84 59.89Q205.13 60.53 204.95 61.51L198.5 60.37ZM200.03 70.51Q198.25 70.2 197.29 68.89Q196.33 67.57 196.61 65.98Q196.9 64.34 198.23 63.5Q199.55 62.65 201.37 62.97Q203.19 63.29 204.16 64.55Q205.13 65.8 204.84 67.43Q204.56 69.03 203.21 69.93Q201.85 70.83 200.03 70.51Z" stroke="#202027" stroke-opacity="1.000000" stroke-width="0.575447"/>
		<rect id="Frame 2043683071" rx="19.750000" width="241.932220" height="72.725060" transform="translate(0.826172 -12.275391) rotate(10.000001)" stroke="#202027" stroke-opacity="1.000000" stroke-width="0.500000"/>
		<rect id="Frame 2043683075" rx="19.750000" width="187.932220" height="72.725060" transform="translate(246.431641 31.031494) rotate(10.000001)" fill="#FFEC8F" fill-opacity="1.000000"/>
		<path id="1 + 3 = ?" d="M392.1 91.42Q391.09 92.46 390.77 94.27L397.23 95.41Q397.33 94.83 397.62 94.37Q397.82 94.05 398.12 93.79Q398.83 93.15 400.25 92.31Q401.55 91.54 402.38 90.88Q403.23 90.22 403.94 89.16Q404.65 88.11 404.92 86.63Q405.21 84.96 404.74 83.55Q404.29 82.23 403.18 81.14Q400.87 78.88 396.55 78.12Q392.71 77.44 389.73 78.38Q387.86 78.97 386.4 80.09Q385.54 80.75 384.83 81.59L389.72 85.44Q390.36 84.69 391.17 84.23Q391.55 84.01 391.97 83.86Q392.33 83.72 392.7 83.65Q393.67 83.45 394.72 83.63Q396.13 83.88 396.9 84.67Q397.33 85.11 397.47 85.62Q397.58 86.05 397.49 86.52Q397.46 86.71 397.4 86.89Q397.2 87.43 396.73 87.86Q396.1 88.44 394.89 89.24Q393.11 90.38 392.1 91.42ZM270.61 82.62L275.1 57.23L263.21 55.14L262.23 60.68L266.94 61.51L263.43 81.35L270.61 82.62ZM337.66 81.35Q336.32 79.16 333.33 77.97L339.6 73.24L340.39 68.75L322.04 65.51L321.05 71.05L331.07 72.82L325.67 76.91L324.87 81.45L327.88 81.98Q330.63 82.46 331.21 83.86Q331.44 84.42 331.32 85.13Q331.21 85.74 330.87 86.17Q330.51 86.64 329.88 86.9Q328.67 87.4 326.82 87.07Q325 86.75 323.23 85.88Q321.46 85 320.16 83.72L316.59 88.67Q318.3 90.21 320.81 91.32Q322.48 92.06 324.21 92.51Q325.1 92.75 326.01 92.91Q329.67 93.55 332.37 92.81Q335.06 92.07 336.62 90.37Q337.45 89.46 337.95 88.39Q338.38 87.46 338.57 86.41Q338.88 84.66 338.45 83.11Q338.2 82.23 337.71 81.42Q337.69 81.38 337.66 81.35ZM299.38 77.33L305.5 78.41L306.44 73.11L300.31 72.03L301.37 66.06L295.78 65.07L294.73 71.05L288.56 69.96L287.63 75.26L293.79 76.34L292.73 82.33L298.32 83.31L299.38 77.33ZM372.32 80.02L354.44 76.87L353.51 82.12L371.39 85.28L372.32 80.02ZM370.69 89.2L352.81 86.05L351.88 91.31L369.76 94.46L370.69 89.2ZM390.25 103.52Q391.09 104.2 392.31 104.41Q393.61 104.64 394.68 104.24Q395.1 104.09 395.48 103.83Q396.17 103.37 396.58 102.73Q396.98 102.12 397.12 101.34Q397.28 100.4 397.03 99.59Q396.85 98.98 396.43 98.45Q396.21 98.16 395.95 97.92Q395.05 97.12 393.64 96.87Q392.22 96.62 391.1 97.09Q390.79 97.22 390.5 97.4Q389.95 97.75 389.58 98.24Q389.05 98.92 388.88 99.88Q388.74 100.67 388.9 101.38Q389.07 102.12 389.56 102.79Q389.87 103.2 390.25 103.52Z" fill="#FFFFFF" fill-opacity="1.000000" fill-rule="evenodd"/>
		<path id="1 + 3 = ?" d="M275.1 57.23L270.61 82.62L263.43 81.35L266.94 61.51L262.23 60.68L263.21 55.14L275.1 57.23ZM305.5 78.41L299.38 77.33L298.32 83.31L292.73 82.33L293.79 76.34L287.63 75.26L288.56 69.96L294.73 71.05L295.78 65.07L301.37 66.06L300.31 72.03L306.44 73.11L305.5 78.41ZM333.33 77.97Q336.37 79.18 337.71 81.42Q339.06 83.66 338.57 86.41Q338.17 88.66 336.62 90.37Q335.06 92.07 332.37 92.81Q329.67 93.55 326.01 92.91Q323.33 92.43 320.81 91.32Q318.3 90.21 316.59 88.67L320.16 83.72Q321.46 85 323.23 85.88Q325 86.75 326.82 87.07Q328.67 87.4 329.88 86.9Q331.09 86.4 331.32 85.13Q331.75 82.66 327.88 81.98L324.87 81.45L325.67 76.91L331.07 72.82L321.05 71.05L322.04 65.51L340.39 68.75L339.6 73.24L333.33 77.97ZM354.44 76.87L372.32 80.02L371.39 85.28L353.51 82.12L354.44 76.87ZM352.81 86.05L370.69 89.2L369.76 94.46L351.88 91.31L352.81 86.05ZM390.77 94.27Q391.09 92.46 392.1 91.42Q393.11 90.38 394.89 89.24Q396.1 88.44 396.73 87.86Q397.36 87.28 397.49 86.52Q397.68 85.47 396.9 84.67Q396.13 83.88 394.72 83.63Q393.27 83.37 391.97 83.86Q390.67 84.34 389.72 85.44L384.83 81.59Q386.76 79.31 389.73 78.38Q392.71 77.44 396.55 78.12Q400.87 78.88 403.18 81.14Q405.49 83.4 404.92 86.63Q404.65 88.11 403.94 89.16Q403.23 90.22 402.38 90.88Q401.55 91.54 400.25 92.31Q398.83 93.15 398.12 93.79Q397.4 94.43 397.23 95.41L390.77 94.27ZM392.31 104.41Q390.53 104.1 389.56 102.79Q388.6 101.48 388.88 99.88Q389.17 98.25 390.5 97.4Q391.83 96.55 393.64 96.87Q395.46 97.19 396.43 98.45Q397.41 99.7 397.12 101.34Q396.83 102.93 395.48 103.83Q394.12 104.73 392.31 104.41Z" stroke="#202027" stroke-opacity="1.000000" stroke-width="0.575447"/>
		<rect id="Frame 2043683075" rx="19.750000" width="187.932220" height="72.725060" transform="translate(246.431641 31.031494) rotate(10.000001)" stroke="#202027" stroke-opacity="1.000000" stroke-width="0.500000"/>
		<rect id="Frame 2043683074" rx="19.750000" width="189.932220" height="72.725060" transform="translate(-12.962891 65.929932) rotate(10.000001)" fill="#FFEC8F" fill-opacity="1.000000"/>
		<path id="9 + 1 = ?" d="M21.27 94.73Q18.75 92.14 14.36 91.36Q11.69 90.89 9.3 91.51Q9.22 91.53 9.15 91.55Q7.5 92 6.2 92.94Q5.56 93.4 5.01 93.97Q4.56 94.44 4.19 94.98Q3.22 96.41 2.89 98.28Q2.57 100.06 2.98 101.66Q3.11 102.18 3.32 102.69Q3.67 103.51 4.17 104.22Q4.91 105.26 5.99 106.07Q6.29 106.29 6.6 106.48Q8.2 107.49 10.21 107.84Q13.38 108.4 15.72 107.26Q15.98 107.14 16.23 107Q15.5 109.56 13.8 110.79Q13.64 110.91 13.47 111.01Q13.16 111.2 12.84 111.35Q11.1 112.15 8.8 111.74Q5.97 111.24 4.35 109.61L0.83 114.3Q2.05 115.42 3.92 116.25Q5.8 117.08 7.94 117.46Q11.96 118.17 15.32 117.08Q16.75 116.62 17.97 115.83Q19.62 114.78 20.91 113.15Q23.15 110.31 23.92 105.96Q24.95 100.2 22.65 96.49Q22.53 96.3 22.41 96.12Q21.9 95.37 21.27 94.73ZM134.52 126.64Q133.52 127.68 133.19 129.49L139.65 130.63Q139.75 130.05 140.04 129.59Q140.25 129.27 140.54 129.01Q141.26 128.37 142.67 127.53Q143.97 126.76 144.81 126.1Q145.66 125.44 146.36 124.38Q147.08 123.33 147.34 121.85Q147.64 120.18 147.16 118.77Q146.72 117.45 145.6 116.36Q143.29 114.1 138.98 113.34Q135.13 112.66 132.16 113.6Q130.28 114.19 128.82 115.31Q127.97 115.97 127.25 116.81L132.15 120.66Q132.79 119.91 133.59 119.45Q133.97 119.23 134.39 119.08Q134.75 118.94 135.13 118.86Q136.1 118.66 137.14 118.85Q138.55 119.1 139.32 119.89Q139.75 120.33 139.89 120.84Q140 121.27 139.92 121.74Q139.89 121.93 139.82 122.11Q139.63 122.65 139.15 123.08Q138.53 123.66 137.31 124.46Q135.54 125.6 134.52 126.64ZM78.1 129.31L82.59 103.93L70.7 101.83L69.72 107.37L74.43 108.2L70.92 128.04L78.1 129.31ZM48.98 113.81L55.11 114.89L56.05 109.6L49.92 108.52L50.98 102.54L45.39 101.56L44.33 107.53L38.17 106.45L37.23 111.74L43.39 112.83L42.33 118.81L47.92 119.8L48.98 113.81ZM15.06 102.79Q14.08 103.21 12.82 102.99Q11.51 102.76 10.73 102Q10.58 101.85 10.45 101.68Q10.18 101.32 10.03 100.93Q9.73 100.14 9.9 99.19Q10.09 98.13 10.7 97.47Q10.95 97.21 11.28 97Q11.51 96.85 11.77 96.75Q12.72 96.35 13.92 96.56Q15.35 96.82 16.13 97.66Q16.25 97.78 16.35 97.91Q16.66 98.33 16.82 98.79Q17.06 99.52 16.91 100.38Q16.74 101.3 16.22 101.93Q15.92 102.29 15.51 102.55Q15.29 102.69 15.06 102.79ZM114.74 115.24L96.86 112.09L95.93 117.34L113.81 120.5L114.74 115.24ZM113.12 124.42L95.24 121.27L94.31 126.53L112.18 129.68L113.12 124.42ZM132.67 138.73Q133.51 139.42 134.73 139.63Q136.04 139.86 137.1 139.46Q137.52 139.31 137.9 139.05Q138.59 138.59 139 137.95Q139.4 137.34 139.54 136.56Q139.71 135.62 139.46 134.81Q139.27 134.2 138.86 133.67Q138.63 133.38 138.37 133.14Q137.47 132.34 136.07 132.09Q134.65 131.84 133.53 132.31Q133.21 132.44 132.92 132.62Q132.37 132.97 132 133.46Q131.48 134.14 131.31 135.1Q131.17 135.89 131.33 136.6Q131.5 137.34 131.99 138.01Q132.29 138.42 132.67 138.73Z" fill="#FFFFFF" fill-opacity="1.000000" fill-rule="evenodd"/>
		<path id="9 + 1 = ?" d="M14.36 91.36Q19.83 92.33 22.41 96.12Q25 99.91 23.92 105.96Q23.15 110.31 20.91 113.15Q18.67 115.99 15.32 117.08Q11.96 118.17 7.94 117.46Q5.8 117.08 3.92 116.25Q2.05 115.42 0.83 114.3L4.35 109.61Q5.97 111.24 8.8 111.74Q11.52 112.22 13.47 111.01Q15.43 109.8 16.23 107Q13.72 108.46 10.21 107.84Q7.81 107.42 5.99 106.07Q4.18 104.72 3.32 102.69Q2.47 100.64 2.89 98.28Q3.34 95.71 5.01 93.97Q6.69 92.22 9.15 91.55Q11.6 90.88 14.36 91.36ZM12.82 102.99Q14.38 103.27 15.51 102.55Q16.65 101.83 16.91 100.38Q17.16 98.97 16.35 97.91Q15.55 96.85 13.92 96.56Q12.4 96.3 11.28 97Q10.17 97.7 9.9 99.19Q9.65 100.63 10.45 101.68Q11.26 102.72 12.82 102.99ZM55.11 114.89L48.98 113.81L47.92 119.8L42.33 118.81L43.39 112.83L37.23 111.74L38.17 106.45L44.33 107.53L45.39 101.56L50.98 102.54L49.92 108.52L56.05 109.6L55.11 114.89ZM82.59 103.93L78.1 129.31L70.92 128.04L74.43 108.2L69.72 107.37L70.7 101.83L82.59 103.93ZM96.86 112.09L114.74 115.24L113.81 120.5L95.93 117.34L96.86 112.09ZM95.24 121.27L113.12 124.42L112.18 129.68L94.31 126.53L95.24 121.27ZM133.19 129.49Q133.52 127.68 134.52 126.64Q135.54 125.6 137.31 124.46Q138.53 123.66 139.15 123.08Q139.78 122.5 139.92 121.74Q140.11 120.69 139.32 119.89Q138.55 119.1 137.14 118.85Q135.69 118.59 134.39 119.08Q133.09 119.56 132.15 120.66L127.25 116.81Q129.19 114.53 132.16 113.6Q135.13 112.66 138.98 113.34Q143.29 114.1 145.6 116.36Q147.91 118.62 147.34 121.85Q147.08 123.33 146.36 124.38Q145.66 125.44 144.81 126.1Q143.97 126.76 142.67 127.53Q141.26 128.37 140.54 129.01Q139.82 129.65 139.65 130.63L133.19 129.49ZM134.73 139.63Q132.95 139.32 131.99 138.01Q131.02 136.7 131.31 135.1Q131.6 133.47 132.92 132.62Q134.25 131.77 136.07 132.09Q137.88 132.41 138.86 133.67Q139.83 134.92 139.54 136.56Q139.26 138.15 137.9 139.05Q136.55 139.95 134.73 139.63Z" stroke="#202027" stroke-opacity="1.000000" stroke-width="0.575447"/>
		<rect id="Frame 2043683074" rx="19.750000" width="189.932220" height="72.725060" transform="translate(-12.962891 65.929932) rotate(10.000001)" stroke="#202027" stroke-opacity="1.000000" stroke-width="0.500000"/>
		<rect id="Frame 2043683073" rx="19.750000" width="194.932220" height="72.725060" transform="translate(181.432617 100.207031) rotate(10.000001)" fill="#FFC700" fill-opacity="1.000000"/>
		<path id="3 × 2 = ?" d="M279.34 164.79L280.35 159.1L270.56 157.38L276.13 153.79Q279.09 151.92 280.29 150.24Q280.82 149.52 281.18 148.72Q281.66 147.68 281.87 146.5Q282.16 144.9 281.79 143.46Q281.63 142.81 281.35 142.2Q281.22 141.93 281.07 141.68Q280.13 140.04 278.34 138.89Q276.28 137.55 273.38 137.04Q269.72 136.39 266.78 137.33Q264.77 137.98 263.23 139.22Q262.52 139.78 261.92 140.48L266.73 144.39Q267.44 143.62 268.32 143.19Q268.64 143.02 268.99 142.91Q269.34 142.8 269.7 142.73Q270.67 142.55 271.7 142.73Q273.29 143.01 274 143.85Q274.23 144.11 274.36 144.4Q274.65 145.06 274.5 145.92Q274.49 145.95 274.48 145.99Q274.31 146.89 273.7 147.7Q273.06 148.54 271.45 149.61L260.38 156.81L259.58 161.31L279.34 164.79ZM334.06 161.83Q333.06 162.86 332.74 164.68L339.19 165.82Q339.29 165.24 339.58 164.78Q339.79 164.46 340.08 164.19Q340.8 163.55 342.21 162.72Q343.51 161.94 344.35 161.28Q345.2 160.62 345.9 159.57Q346.62 158.52 346.88 157.04Q347.18 155.37 346.7 153.96Q346.26 152.64 345.14 151.54Q342.83 149.28 338.52 148.52Q334.68 147.85 331.7 148.78Q329.83 149.37 328.36 150.5Q327.51 151.16 326.79 152L331.69 155.85Q332.33 155.1 333.14 154.63Q333.52 154.42 333.93 154.26Q334.29 154.13 334.67 154.05Q335.64 153.85 336.68 154.03Q338.09 154.28 338.87 155.08Q339.29 155.51 339.43 156.03Q339.54 156.45 339.46 156.92Q339.43 157.11 339.36 157.29Q339.17 157.83 338.69 158.27Q338.07 158.84 336.85 159.64Q335.08 160.78 334.06 161.83ZM214.71 140.3Q213.37 138.11 210.38 136.93L216.64 132.2L217.44 127.7L199.08 124.47L198.1 130.01L208.11 131.77L202.71 135.87L201.91 140.4L204.92 140.93Q207.68 141.42 208.25 142.81Q208.49 143.38 208.36 144.09Q208.25 144.7 207.92 145.13Q207.56 145.59 206.93 145.85Q205.71 146.35 203.86 146.03Q202.05 145.71 200.28 144.84Q198.5 143.96 197.21 142.68L193.64 147.63Q195.35 149.16 197.86 150.28Q199.52 151.01 201.26 151.47Q202.15 151.7 203.06 151.86Q206.71 152.51 209.41 151.77Q212.11 151.03 213.66 149.32Q214.49 148.41 214.99 147.35Q215.43 146.42 215.61 145.37Q215.92 143.61 215.49 142.07Q215.24 141.19 214.75 140.38Q214.73 140.34 214.71 140.3ZM246.53 150.52L242.86 145.27L248.11 141.6L245.07 137.21L239.82 140.89L236.15 135.64L231.79 138.72L235.46 143.96L230.21 147.64L233.24 152.03L238.5 148.35L242.17 153.6L246.53 150.52ZM314.28 150.42L296.4 147.27L295.47 152.53L313.35 155.68L314.28 150.42ZM312.66 159.6L294.78 156.45L293.85 161.71L311.73 164.86L312.66 159.6ZM332.22 173.92Q333.05 174.6 334.27 174.82Q335.58 175.05 336.65 174.65Q337.06 174.49 337.44 174.24Q338.13 173.78 338.55 173.14Q338.94 172.52 339.08 171.74Q339.25 170.8 339 169.99Q338.81 169.39 338.4 168.85Q338.18 168.57 337.91 168.33Q337.01 167.52 335.61 167.27Q334.19 167.02 333.07 167.49Q332.76 167.62 332.46 167.81Q331.92 168.16 331.54 168.64Q331.02 169.33 330.85 170.29Q330.71 171.07 330.87 171.78Q331.04 172.52 331.53 173.19Q331.83 173.61 332.22 173.92Z" fill="#FFFFFF" fill-opacity="1.000000" fill-rule="evenodd"/>
		<path id="3 × 2 = ?" d="M210.38 136.93Q213.42 138.13 214.75 140.38Q216.1 142.61 215.61 145.37Q215.21 147.62 213.66 149.32Q212.11 151.03 209.41 151.77Q206.71 152.51 203.06 151.86Q200.37 151.39 197.86 150.28Q195.35 149.16 193.64 147.63L197.21 142.68Q198.5 143.96 200.28 144.84Q202.05 145.71 203.86 146.03Q205.71 146.35 206.93 145.85Q208.14 145.35 208.36 144.09Q208.8 141.62 204.92 140.93L201.91 140.4L202.71 135.87L208.11 131.77L198.1 130.01L199.08 124.47L217.44 127.7L216.64 132.2L210.38 136.93ZM242.86 145.27L246.53 150.52L242.17 153.6L238.5 148.35L233.24 152.03L230.21 147.64L235.46 143.96L231.79 138.72L236.15 135.64L239.82 140.89L245.07 137.21L248.11 141.6L242.86 145.27ZM280.35 159.1L279.34 164.79L259.58 161.31L260.38 156.81L271.45 149.61Q273.06 148.54 273.7 147.7Q274.33 146.86 274.5 145.92Q274.72 144.68 274 143.85Q273.29 143.01 271.7 142.73Q270.28 142.48 268.99 142.91Q267.7 143.33 266.73 144.39L261.92 140.48Q263.84 138.28 266.78 137.33Q269.72 136.39 273.38 137.04Q276.28 137.55 278.34 138.89Q280.41 140.22 281.35 142.2Q282.28 144.19 281.87 146.5Q281.51 148.57 280.29 150.24Q279.09 151.92 276.13 153.79L270.56 157.38L280.35 159.1ZM296.4 147.27L314.28 150.42L313.35 155.68L295.47 152.53L296.4 147.27ZM294.78 156.45L312.66 159.6L311.73 164.86L293.85 161.71L294.78 156.45ZM332.74 164.68Q333.06 162.86 334.06 161.83Q335.08 160.78 336.85 159.64Q338.07 158.84 338.69 158.27Q339.33 157.69 339.46 156.92Q339.65 155.87 338.87 155.08Q338.09 154.28 336.68 154.03Q335.23 153.78 333.93 154.26Q332.63 154.74 331.69 155.85L326.79 152Q328.73 149.72 331.7 148.78Q334.68 147.85 338.52 148.52Q342.83 149.28 345.14 151.54Q347.45 153.81 346.88 157.04Q346.62 158.52 345.9 159.57Q345.2 160.62 344.35 161.28Q343.51 161.94 342.21 162.72Q340.8 163.55 340.08 164.19Q339.37 164.83 339.19 165.82L332.74 164.68ZM334.27 174.82Q332.49 174.5 331.53 173.19Q330.57 171.88 330.85 170.29Q331.14 168.65 332.46 167.81Q333.79 166.95 335.61 167.27Q337.42 167.59 338.4 168.85Q339.37 170.1 339.08 171.74Q338.8 173.33 337.44 174.24Q336.09 175.14 334.27 174.82Z" stroke="#202027" stroke-opacity="1.000000" stroke-width="0.575447"/>
		<rect id="Frame 2043683073" rx="19.750000" width="194.932220" height="72.725060" transform="translate(181.432617 100.207031) rotate(10.000001)" stroke="#202027" stroke-opacity="1.000000" stroke-width="0.500000"/>
		<rect id="Frame 2043683072" rx="19.750000" width="220.932220" height="72.725060" transform="translate(-26.753906 144.135254) rotate(10.000001)" fill="#FFC700" fill-opacity="1.000000"/>
		<path id="36 − 6 = ?" d="M27.86 185.1Q26.28 184.13 24.32 183.78Q21.12 183.22 18.76 184.38Q18.5 184.51 18.25 184.66Q18.93 182.15 20.57 180.9Q20.77 180.75 20.98 180.62Q21.29 180.43 21.62 180.28Q23.39 179.47 25.71 179.88Q28.55 180.38 30.17 182.01L33.69 177.32Q32.47 176.17 30.6 175.36Q28.72 174.54 26.55 174.15Q22.52 173.44 19.18 174.54Q17.84 174.98 16.68 175.7Q14.94 176.78 13.6 178.48Q11.36 181.32 10.59 185.66Q9.57 191.45 11.87 195.16Q11.98 195.34 12.1 195.51Q12.63 196.28 13.28 196.94Q15.8 199.48 20.13 200.25Q22.92 200.74 25.38 200.08Q27.07 199.61 28.39 198.64Q28.98 198.2 29.5 197.66Q29.97 197.18 30.34 196.63Q31.31 195.2 31.64 193.34Q31.95 191.59 31.56 190.02Q31.43 189.47 31.2 188.94Q30.85 188.1 30.33 187.38Q29.6 186.35 28.53 185.56Q28.2 185.32 27.86 185.1ZM94.59 196.87Q93.02 195.9 91.06 195.55Q87.85 194.99 85.5 196.15Q85.24 196.27 84.98 196.43Q85.66 193.91 87.31 192.67Q87.5 192.52 87.72 192.39Q88.03 192.2 88.35 192.05Q90.13 191.24 92.45 191.65Q95.28 192.15 96.9 193.78L100.43 189.09Q99.21 187.94 97.33 187.13Q95.46 186.3 93.28 185.92Q89.25 185.21 85.92 186.31Q84.58 186.75 83.41 187.47Q81.68 188.54 80.33 190.25Q78.1 193.08 77.33 197.43Q76.3 203.21 78.61 206.93Q78.72 207.1 78.83 207.27Q79.37 208.05 80.02 208.71Q82.54 211.25 86.86 212.01Q89.66 212.51 92.11 211.84Q93.81 211.38 95.12 210.41Q95.72 209.97 96.24 209.43Q96.71 208.94 97.08 208.4Q98.05 206.97 98.38 205.1Q98.68 203.36 98.3 201.79Q98.16 201.24 97.94 200.71Q97.59 199.87 97.07 199.14Q96.33 198.11 95.26 197.32Q94.94 197.08 94.59 196.87ZM151.36 210.25Q150.35 211.28 150.03 213.1L156.48 214.24Q156.59 213.66 156.88 213.2Q157.08 212.88 157.37 212.61Q158.09 211.97 159.51 211.14Q160.8 210.36 161.64 209.7Q162.49 209.04 163.2 207.99Q163.91 206.94 164.17 205.46Q164.47 203.79 164 202.38Q163.55 201.06 162.44 199.97Q160.12 197.7 155.81 196.94Q151.97 196.27 148.99 197.2Q147.12 197.79 145.66 198.92Q144.8 199.58 144.08 200.42L148.98 204.27Q149.62 203.52 150.43 203.05Q150.81 202.84 151.22 202.68Q151.59 202.55 151.96 202.47Q152.93 202.27 153.98 202.45Q155.38 202.7 156.16 203.5Q156.59 203.93 156.72 204.45Q156.84 204.87 156.75 205.35Q156.72 205.53 156.65 205.71Q156.46 206.25 155.98 206.69Q155.36 207.26 154.14 208.06Q152.37 209.2 151.36 210.25ZM6.65 184.25Q5.31 182.06 2.32 180.88L8.58 176.15L9.38 171.65L-8.98 168.42L-9.96 173.96L0.05 175.72L-5.35 179.82L-6.15 184.35L-3.14 184.89Q-0.38 185.37 0.19 186.76Q0.43 187.33 0.3 188.04Q0.19 188.65 -0.14 189.08Q-0.51 189.54 -1.14 189.8Q-2.35 190.3 -4.2 189.98Q-6.01 189.66 -7.79 188.79Q-9.56 187.91 -10.85 186.63L-14.43 191.58Q-12.72 193.11 -10.2 194.23Q-8.54 194.97 -6.8 195.42Q-5.91 195.65 -5 195.81Q-1.35 196.46 1.35 195.72Q4.05 194.98 5.6 193.27Q6.43 192.36 6.93 191.3Q7.37 190.37 7.55 189.32Q7.86 187.57 7.43 186.02Q7.18 185.14 6.69 184.33Q6.67 184.29 6.65 184.25ZM131.57 198.84L113.7 195.69L112.77 200.95L130.64 204.1L131.57 198.84ZM64.03 191.64L46.15 188.49L45.21 193.79L63.09 196.94L64.03 191.64ZM22.78 194.87Q21.82 195.28 20.6 195.06Q19.16 194.81 18.36 193.95Q18.25 193.84 18.16 193.72Q17.86 193.32 17.71 192.87Q17.46 192.12 17.61 191.24Q17.78 190.32 18.3 189.69Q18.59 189.34 19 189.08Q19.23 188.93 19.49 188.83Q20.46 188.42 21.7 188.64Q23.01 188.87 23.79 189.64Q23.93 189.78 24.06 189.95Q24.33 190.29 24.48 190.68Q24.79 191.47 24.61 192.44Q24.43 193.47 23.83 194.13Q23.57 194.42 23.23 194.63Q23.01 194.77 22.78 194.87ZM89.51 206.63Q88.56 207.04 87.33 206.83Q85.89 206.57 85.09 205.72Q84.99 205.61 84.89 205.48Q84.59 205.08 84.44 204.63Q84.19 203.89 84.35 203.01Q84.51 202.08 85.03 201.46Q85.33 201.11 85.73 200.85Q85.97 200.7 86.22 200.59Q87.2 200.18 88.43 200.4Q89.74 200.63 90.52 201.4Q90.67 201.55 90.79 201.71Q91.07 202.06 91.22 202.45Q91.52 203.24 91.35 204.2Q91.17 205.24 90.57 205.9Q90.3 206.18 89.96 206.4Q89.75 206.53 89.51 206.63ZM129.95 208.02L112.07 204.87L111.14 210.13L129.02 213.28L129.95 208.02ZM149.51 222.34Q150.34 223.02 151.56 223.24Q152.87 223.47 153.94 223.07Q154.35 222.91 154.74 222.66Q155.43 222.2 155.84 221.56Q156.24 220.94 156.37 220.16Q156.54 219.22 156.29 218.41Q156.11 217.81 155.69 217.27Q155.47 216.99 155.2 216.75Q154.3 215.94 152.9 215.7Q151.48 215.45 150.36 215.91Q150.05 216.04 149.76 216.23Q149.21 216.58 148.84 217.06Q148.31 217.75 148.14 218.71Q148 219.49 148.16 220.2Q148.33 220.95 148.82 221.61Q149.12 222.03 149.51 222.34Z" fill="#FFFFFF" fill-opacity="1.000000" fill-rule="evenodd"/>
		<path id="36 − 6 = ?" d="M2.32 180.88Q5.36 182.08 6.69 184.33Q8.04 186.56 7.55 189.32Q7.15 191.57 5.6 193.27Q4.05 194.98 1.35 195.72Q-1.35 196.46 -5 195.81Q-7.69 195.34 -10.2 194.23Q-12.72 193.11 -14.43 191.58L-10.85 186.63Q-9.56 187.91 -7.79 188.79Q-6.01 189.66 -4.2 189.98Q-2.35 190.3 -1.14 189.8Q0.08 189.31 0.3 188.04Q0.74 185.57 -3.14 184.89L-6.15 184.35L-5.35 179.82L0.05 175.72L-9.96 173.96L-8.98 168.42L9.38 171.65L8.58 176.15L2.32 180.88ZM24.32 183.78Q26.71 184.21 28.53 185.56Q30.35 186.9 31.2 188.94Q32.06 190.98 31.64 193.34Q31.18 195.91 29.5 197.66Q27.84 199.4 25.38 200.08Q22.92 200.74 20.13 200.25Q14.69 199.29 12.1 195.51Q9.52 191.72 10.59 185.66Q11.36 181.32 13.6 178.48Q15.85 175.63 19.18 174.54Q22.52 173.44 26.55 174.15Q28.72 174.54 30.6 175.36Q32.47 176.17 33.69 177.32L30.17 182.01Q28.55 180.38 25.71 179.88Q22.96 179.4 20.98 180.62Q19.01 181.84 18.25 184.66Q20.76 183.16 24.32 183.78ZM20.6 195.06Q22.12 195.33 23.23 194.63Q24.35 193.92 24.61 192.44Q24.87 190.98 24.06 189.95Q23.26 188.91 21.7 188.64Q20.14 188.36 19 189.08Q17.87 189.79 17.61 191.24Q17.36 192.65 18.16 193.72Q18.97 194.77 20.6 195.06ZM46.15 188.49L64.03 191.64L63.09 196.94L45.21 193.79L46.15 188.49ZM91.06 195.55Q93.45 195.97 95.26 197.32Q97.09 198.67 97.94 200.71Q98.79 202.75 98.38 205.1Q97.92 207.68 96.24 209.43Q94.57 211.17 92.11 211.84Q89.66 212.51 86.86 212.01Q81.42 211.05 78.83 207.27Q76.25 203.49 77.33 197.43Q78.1 193.08 80.33 190.25Q82.58 187.4 85.92 186.31Q89.25 185.21 93.28 185.92Q95.46 186.3 97.33 187.13Q99.21 187.94 100.43 189.09L96.9 193.78Q95.28 192.15 92.45 191.65Q89.7 191.17 87.72 192.39Q85.75 193.61 84.98 196.43Q87.5 194.92 91.06 195.55ZM87.33 206.83Q88.85 207.1 89.96 206.4Q91.09 205.69 91.35 204.2Q91.61 202.75 90.79 201.71Q89.99 200.68 88.43 200.4Q86.88 200.13 85.73 200.85Q84.6 201.56 84.35 203.01Q84.1 204.42 84.89 205.48Q85.7 206.54 87.33 206.83ZM113.7 195.69L131.57 198.84L130.64 204.1L112.77 200.95L113.7 195.69ZM112.07 204.87L129.95 208.02L129.02 213.28L111.14 210.13L112.07 204.87ZM150.03 213.1Q150.35 211.28 151.36 210.25Q152.37 209.2 154.14 208.06Q155.36 207.26 155.98 206.69Q156.62 206.11 156.75 205.35Q156.94 204.29 156.16 203.5Q155.38 202.7 153.98 202.45Q152.52 202.2 151.22 202.68Q149.92 203.16 148.98 204.27L144.08 200.42Q146.02 198.14 148.99 197.2Q151.97 196.27 155.81 196.94Q160.12 197.7 162.44 199.97Q164.75 202.23 164.17 205.46Q163.91 206.94 163.2 207.99Q162.49 209.04 161.64 209.7Q160.8 210.36 159.51 211.14Q158.09 211.97 157.37 212.61Q156.66 213.25 156.48 214.24L150.03 213.1ZM151.56 223.24Q149.78 222.92 148.82 221.61Q147.86 220.3 148.14 218.71Q148.43 217.07 149.76 216.23Q151.09 215.38 152.9 215.7Q154.72 216.02 155.69 217.27Q156.66 218.52 156.37 220.16Q156.09 221.75 154.74 222.66Q153.38 223.56 151.56 223.24Z" stroke="#202027" stroke-opacity="1.000000" stroke-width="0.575447"/>
		<rect id="Frame 2043683072" rx="19.750000" width="220.932220" height="72.725060" transform="translate(-26.753906 144.135254) rotate(10.000001)" stroke="#202027" stroke-opacity="1.000000" stroke-width="0.500000"/>
		<rect id="Frame 2043683094" rx="19.750000" width="198.932220" height="72.725060" transform="translate(198.169922 183.795532) rotate(10.000001)" fill="#FFEC8F" fill-opacity="1.000000"/>
		<path id="4 ÷ 2 = ?" d="M299.81 249.04L300.82 243.35L291.03 241.62L296.6 238.04Q299.55 236.17 300.76 234.49Q301.29 233.77 301.65 232.97Q302.13 231.92 302.34 230.75Q302.62 229.15 302.26 227.7Q302.1 227.06 301.81 226.45Q301.69 226.18 301.54 225.92Q300.6 224.29 298.81 223.14Q296.75 221.8 293.84 221.28Q290.19 220.64 287.24 221.58Q285.23 222.23 283.7 223.46Q282.99 224.03 282.39 224.72L287.2 228.64Q287.91 227.87 288.79 227.43Q289.11 227.27 289.46 227.16Q289.81 227.04 290.17 226.97Q291.13 226.79 292.17 226.98Q293.76 227.26 294.47 228.1Q294.69 228.35 294.82 228.65Q295.12 229.31 294.96 230.16Q294.96 230.2 294.95 230.23Q294.77 231.13 294.16 231.95Q293.53 232.79 291.92 233.85L280.84 241.06L280.05 245.56L299.81 249.04ZM354.53 246.07Q353.52 247.11 353.2 248.92L359.66 250.06Q359.76 249.48 360.05 249.02Q360.25 248.7 360.55 248.44Q361.26 247.8 362.68 246.96Q363.98 246.19 364.82 245.53Q365.66 244.87 366.37 243.81Q367.09 242.76 367.35 241.28Q367.64 239.61 367.17 238.2Q366.73 236.88 365.61 235.79Q363.3 233.53 358.99 232.77Q355.14 232.09 352.17 233.03Q350.29 233.62 348.83 234.74Q347.97 235.4 347.26 236.24L352.16 240.09Q352.8 239.34 353.6 238.88Q353.98 238.66 354.4 238.51Q354.76 238.37 355.14 238.3Q356.1 238.1 357.15 238.28Q358.56 238.53 359.33 239.32Q359.76 239.76 359.9 240.27Q360.01 240.7 359.93 241.17Q359.89 241.36 359.83 241.54Q359.64 242.08 359.16 242.51Q358.54 243.09 357.32 243.89Q355.55 245.03 354.53 246.07ZM232.64 232.18L236.41 232.85L237.42 227.16L233.64 226.49L234.41 222.18L227.63 220.98L226.86 225.29L221.71 224.39L234.67 211.38L227.24 210.07L213.04 223.91L212.22 228.58L225.63 230.95L224.77 235.81L231.78 237.04L232.64 232.18ZM258.7 223.83Q259.4 224.38 260.39 224.55Q261.28 224.71 262.06 224.49Q262.59 224.34 263.07 224.02Q263.52 223.71 263.84 223.3Q264.36 222.64 264.53 221.69Q264.7 220.72 264.42 219.91Q264.26 219.45 263.95 219.03Q263.62 218.58 263.18 218.27Q262.51 217.79 261.61 217.63Q260.61 217.45 259.76 217.73Q259.32 217.88 258.92 218.15Q258.53 218.41 258.24 218.76Q257.67 219.44 257.49 220.45Q257.31 221.43 257.59 222.26Q257.75 222.72 258.04 223.13Q258.32 223.53 258.7 223.83ZM334.75 234.67L316.87 231.52L315.94 236.77L333.82 239.93L334.75 234.67ZM269.02 227.79L251.14 224.64L250.2 229.93L268.08 233.08L269.02 227.79ZM333.12 243.85L315.25 240.7L314.31 245.96L332.19 249.11L333.12 243.85ZM255.98 239.41Q256.67 239.94 257.63 240.11Q258.5 240.26 259.26 240.05Q259.81 239.9 260.31 239.56Q260.78 239.23 261.11 238.8Q261.62 238.14 261.78 237.21Q261.94 236.32 261.7 235.56Q261.53 235.04 261.19 234.59Q260.86 234.14 260.43 233.82Q259.76 233.34 258.86 233.18Q257.82 233 256.95 233.3Q256.54 233.44 256.17 233.69Q255.79 233.94 255.5 234.27Q254.92 234.95 254.74 235.97Q254.57 236.94 254.83 237.76Q254.99 238.24 255.28 238.67Q255.59 239.1 255.98 239.41ZM352.68 258.17Q353.52 258.85 354.74 259.06Q356.04 259.29 357.11 258.89Q357.53 258.74 357.91 258.48Q358.6 258.02 359.01 257.38Q359.41 256.77 359.55 255.99Q359.72 255.05 359.47 254.24Q359.28 253.63 358.86 253.1Q358.64 252.81 358.38 252.58Q357.48 251.77 356.08 251.52Q354.66 251.27 353.54 251.74Q353.22 251.87 352.93 252.05Q352.38 252.4 352.01 252.89Q351.48 253.57 351.31 254.53Q351.18 255.32 351.34 256.03Q351.5 256.77 352 257.44Q352.3 257.85 352.68 258.17Z" fill="#FFFFFF" fill-opacity="1.000000" fill-rule="evenodd"/>
		<path id="4 ÷ 2 = ?" d="M236.41 232.85L232.64 232.18L231.78 237.04L224.77 235.81L225.63 230.95L212.22 228.58L213.04 223.91L227.24 210.07L234.67 211.38L221.71 224.39L226.86 225.29L227.63 220.98L234.41 222.18L233.64 226.49L237.42 227.16L236.41 232.85ZM260.39 224.55Q258.86 224.28 258.04 223.13Q257.22 221.97 257.49 220.45Q257.76 218.93 258.92 218.15Q260.09 217.36 261.61 217.63Q263.1 217.89 263.95 219.03Q264.8 220.17 264.53 221.69Q264.26 223.22 263.07 224.02Q261.88 224.81 260.39 224.55ZM251.14 224.64L269.02 227.79L268.08 233.08L250.2 229.93L251.14 224.64ZM257.63 240.11Q256.11 239.84 255.28 238.67Q254.47 237.49 254.74 235.97Q255.01 234.45 256.17 233.69Q257.34 232.91 258.86 233.18Q260.35 233.45 261.19 234.59Q262.04 235.73 261.78 237.21Q261.51 238.74 260.31 239.56Q259.12 240.37 257.63 240.11ZM300.82 243.35L299.81 249.04L280.05 245.56L280.84 241.06L291.92 233.85Q293.53 232.79 294.16 231.95Q294.8 231.1 294.96 230.16Q295.18 228.92 294.47 228.1Q293.76 227.26 292.17 226.98Q290.75 226.73 289.46 227.16Q288.17 227.58 287.2 228.64L282.39 224.72Q284.31 222.52 287.24 221.58Q290.19 220.64 293.84 221.28Q296.75 221.8 298.81 223.14Q300.88 224.47 301.81 226.45Q302.75 228.43 302.34 230.75Q301.97 232.81 300.76 234.49Q299.55 236.17 296.6 238.04L291.03 241.62L300.82 243.35ZM316.87 231.52L334.75 234.67L333.82 239.93L315.94 236.77L316.87 231.52ZM315.25 240.7L333.12 243.85L332.19 249.11L314.31 245.96L315.25 240.7ZM353.2 248.92Q353.52 247.11 354.53 246.07Q355.55 245.03 357.32 243.89Q358.54 243.09 359.16 242.51Q359.79 241.93 359.93 241.17Q360.11 240.12 359.33 239.32Q358.56 238.53 357.15 238.28Q355.7 238.02 354.4 238.51Q353.1 238.99 352.16 240.09L347.26 236.24Q349.2 233.96 352.17 233.03Q355.14 232.09 358.99 232.77Q363.3 233.53 365.61 235.79Q367.92 238.05 367.35 241.28Q367.09 242.76 366.37 243.81Q365.66 244.87 364.82 245.53Q363.98 246.19 362.68 246.96Q361.26 247.8 360.55 248.44Q359.83 249.08 359.66 250.06L353.2 248.92ZM354.74 259.06Q352.96 258.75 352 257.44Q351.03 256.13 351.31 254.53Q351.6 252.9 352.93 252.05Q354.26 251.2 356.08 251.52Q357.89 251.84 358.86 253.1Q359.84 254.35 359.55 255.99Q359.27 257.58 357.91 258.48Q356.55 259.38 354.74 259.06Z" stroke="#202027" stroke-opacity="1.000000" stroke-width="0.575447"/>
		<rect id="Frame 2043683094" rx="19.750000" width="198.932220" height="72.725060" transform="translate(198.169922 183.795532) rotate(10.000001)" stroke="#202027" stroke-opacity="1.000000" stroke-width="0.500000"/>
		<rect id="Frame 2043683093" rx="19.750000" width="243.932220" height="72.725060" transform="translate(-40.544922 222.340576) rotate(10.000001)" fill="#FFEC8F" fill-opacity="1.000000"/>
		<path id="78 + 57 = ?" d="M18.26 268.81Q17.58 267.16 16.03 265.84Q17.24 265.28 18.09 264.38Q18.27 264.19 18.43 263.98Q18.64 263.72 18.82 263.43Q19.43 262.44 19.65 261.21Q19.89 259.84 19.61 258.59Q19.44 257.82 19.07 257.09Q19.05 257.06 19.04 257.04Q18.07 255.15 15.96 253.86Q13.82 252.54 10.84 252.02Q7.87 251.49 5.4 252Q2.97 252.49 1.41 253.92Q1.39 253.94 1.37 253.96Q0.78 254.51 0.35 255.17Q-0.35 256.26 -0.59 257.64Q-0.81 258.87 -0.57 260.01Q-0.5 260.34 -0.4 260.67Q-0.31 260.91 -0.21 261.15Q0.28 262.29 1.22 263.23Q-0.69 263.94 -1.9 265.26Q-2.17 265.55 -2.39 265.87Q-3.18 267 -3.45 268.5Q-3.71 270.01 -3.4 271.39Q-3.21 272.2 -2.82 272.96Q-1.76 275.01 0.56 276.43Q2.9 277.84 6.17 278.42Q9.43 279 12.1 278.46Q14.78 277.92 16.47 276.36Q17.12 275.77 17.58 275.06Q18.34 273.88 18.6 272.39Q18.86 270.91 18.52 269.59Q18.42 269.2 18.26 268.81ZM159.99 292.41Q158.98 293.44 158.66 295.26L165.12 296.4Q165.22 295.82 165.51 295.36Q165.71 295.04 166.01 294.77Q166.72 294.13 168.14 293.29Q169.44 292.52 170.27 291.86Q171.12 291.2 171.83 290.15Q172.54 289.1 172.81 287.62Q173.1 285.95 172.63 284.54Q172.19 283.22 171.07 282.13Q168.76 279.86 164.44 279.1Q160.6 278.43 157.62 279.36Q155.75 279.95 154.29 281.08Q153.43 281.74 152.72 282.58L157.61 286.43Q158.25 285.68 159.06 285.21Q159.44 285 159.86 284.84Q160.22 284.71 160.59 284.63Q161.56 284.43 162.61 284.61Q164.02 284.86 164.79 285.66Q165.22 286.09 165.36 286.61Q165.47 287.03 165.38 287.5Q165.35 287.69 165.29 287.87Q165.09 288.41 164.62 288.85Q163.99 289.42 162.78 290.22Q161 291.36 159.99 292.41ZM-2.63 254.81L-1.83 250.31L-22.87 246.6L-24.57 256.21L-18.45 257.29L-17.75 253.38L-11.08 254.55L-23.13 272.74L-15.29 274.12L-2.63 254.81ZM82.7 277Q80.53 274.37 75.19 273.43L73.49 273.13L74.48 269.48L84.7 271.29L85.68 265.75L69.51 262.89L65.61 277.5L72.5 278.71Q75.26 279.2 76.23 280.05Q76.72 280.47 76.91 281.01Q77.09 281.53 76.98 282.16Q76.88 282.74 76.56 283.17Q76.19 283.66 75.52 283.94Q74.29 284.45 72.44 284.13Q72.23 284.09 72.03 284.05Q70.39 283.7 68.85 282.94Q67.23 282.12 65.95 280.94Q65.87 280.86 65.78 280.78L62.25 285.73Q63.92 287.26 66.44 288.38Q68.1 289.12 69.83 289.57Q70.72 289.8 71.63 289.96Q75.29 290.61 77.99 289.87Q80.65 289.14 82.21 287.41Q82.23 287.39 82.25 287.37Q82.92 286.61 83.39 285.74Q83.99 284.59 84.23 283.25Q84.62 281.05 83.97 279.23Q83.55 278.03 82.7 277ZM108.79 274.46L109.59 269.96L88.55 266.25L86.85 275.86L92.97 276.94L93.67 273.02L100.34 274.2L88.29 292.38L96.13 293.76L108.79 274.46ZM44.6 274.31L50.72 275.39L51.66 270.1L45.54 269.02L46.59 263.04L41.01 262.06L39.95 268.03L33.78 266.95L32.85 272.24L39.01 273.33L37.95 279.31L43.54 280.3L44.6 274.31ZM7.87 257.27Q8.76 256.86 9.95 257.07Q11.25 257.3 11.96 258.07Q12 258.12 12.04 258.16Q12.25 258.42 12.37 258.71Q12.68 259.4 12.52 260.29Q12.37 261.1 11.9 261.63Q11.66 261.89 11.34 262.08Q11.29 262.11 11.23 262.14Q10.31 262.63 9 262.4Q7.69 262.16 7 261.38Q6.97 261.34 6.93 261.3Q6.72 261.03 6.59 260.73Q6.31 260.06 6.46 259.22Q6.62 258.33 7.14 257.79Q7.36 257.56 7.64 257.39Q7.75 257.33 7.87 257.27ZM140.21 281L122.33 277.85L121.4 283.11L139.28 286.26L140.21 281ZM9.98 273.02Q8.8 273.69 7.06 273.38Q5.31 273.07 4.43 272.04Q4.08 271.63 3.91 271.16Q3.65 270.43 3.81 269.56Q3.97 268.66 4.48 268.07Q4.79 267.7 5.24 267.44Q5.25 267.44 5.25 267.43Q6.44 266.76 8.18 267.07Q9.92 267.38 10.79 268.42L10.8 268.42Q11.14 268.82 11.31 269.29Q11.58 270.02 11.42 270.9Q11.27 271.76 10.79 272.35Q10.46 272.75 9.98 273.02ZM138.58 290.18L120.7 287.03L119.77 292.29L137.65 295.44L138.58 290.18ZM158.14 304.5Q158.98 305.18 160.2 305.4Q161.5 305.63 162.57 305.23Q162.99 305.07 163.37 304.82Q164.06 304.36 164.47 303.72Q164.87 303.1 165.01 302.32Q165.17 301.38 164.92 300.57Q164.74 299.97 164.32 299.43Q164.1 299.15 163.84 298.91Q162.94 298.1 161.53 297.85Q160.12 297.6 158.99 298.07Q158.68 298.2 158.39 298.39Q157.84 298.74 157.47 299.22Q156.94 299.91 156.77 300.87Q156.63 301.65 156.79 302.36Q156.96 303.1 157.45 303.77Q157.76 304.19 158.14 304.5Z" fill="#FFFFFF" fill-opacity="1.000000" fill-rule="evenodd"/>
		<path id="78 + 57 = ?" d="M-1.83 250.31L-2.63 254.81L-15.29 274.12L-23.13 272.74L-11.08 254.55L-17.75 253.38L-18.45 257.29L-24.57 256.21L-22.87 246.6L-1.83 250.31ZM16.03 265.84Q17.58 267.16 18.26 268.81Q18.94 270.47 18.6 272.39Q18.18 274.79 16.47 276.36Q14.78 277.92 12.1 278.46Q9.43 279 6.17 278.42Q2.9 277.84 0.56 276.43Q-1.76 275.01 -2.82 272.96Q-3.87 270.9 -3.45 268.5Q-3.11 266.58 -1.9 265.26Q-0.69 263.94 1.22 263.23Q0.08 262.09 -0.4 260.67Q-0.87 259.23 -0.59 257.64Q-0.2 255.42 1.37 253.96Q2.94 252.5 5.4 252Q7.87 251.49 10.84 252.02Q13.82 252.54 15.96 253.86Q18.1 255.17 19.07 257.09Q20.04 258.99 19.65 261.21Q19.37 262.8 18.43 263.98Q17.49 265.16 16.03 265.84ZM9.95 257.07Q8.61 256.83 7.64 257.39Q6.69 257.95 6.46 259.22Q6.24 260.45 6.93 261.3Q7.62 262.15 9 262.4Q10.39 262.64 11.34 262.08Q12.3 261.52 12.52 260.29Q12.74 259.02 12.04 258.16Q11.33 257.31 9.95 257.07ZM7.06 273.38Q8.8 273.69 9.98 273.02Q11.17 272.35 11.42 270.9Q11.68 269.45 10.8 268.42Q9.92 267.38 8.18 267.07Q6.43 266.76 5.24 267.44Q4.07 268.11 3.81 269.56Q3.55 271 4.43 272.04Q5.31 273.07 7.06 273.38ZM50.72 275.39L44.6 274.31L43.54 280.3L37.95 279.31L39.01 273.33L32.85 272.24L33.78 266.95L39.95 268.03L41.01 262.06L46.59 263.04L45.54 269.02L51.66 270.1L50.72 275.39ZM75.19 273.43Q80.53 274.37 82.7 277Q84.87 279.63 84.23 283.25Q83.81 285.61 82.25 287.37Q80.68 289.13 77.99 289.87Q75.29 290.61 71.63 289.96Q68.95 289.49 66.44 288.38Q63.92 287.26 62.25 285.73L65.78 280.78Q67.12 282.07 68.85 282.94Q70.59 283.8 72.44 284.13Q74.29 284.45 75.52 283.94Q76.75 283.43 76.98 282.16Q77.2 280.89 76.23 280.05Q75.26 279.2 72.5 278.71L65.61 277.5L69.51 262.89L85.68 265.75L84.7 271.29L74.48 269.48L73.49 273.13L75.19 273.43ZM109.59 269.96L108.79 274.46L96.13 293.76L88.29 292.38L100.34 274.2L93.67 273.02L92.97 276.94L86.85 275.86L88.55 266.25L109.59 269.96ZM122.33 277.85L140.21 281L139.28 286.26L121.4 283.11L122.33 277.85ZM120.7 287.03L138.58 290.18L137.65 295.44L119.77 292.29L120.7 287.03ZM158.66 295.26Q158.98 293.44 159.99 292.41Q161 291.36 162.78 290.22Q163.99 289.42 164.62 288.85Q165.25 288.27 165.38 287.5Q165.57 286.45 164.79 285.66Q164.02 284.86 162.61 284.61Q161.16 284.36 159.86 284.84Q158.56 285.32 157.61 286.43L152.72 282.58Q154.65 280.3 157.62 279.36Q160.6 278.43 164.44 279.1Q168.76 279.86 171.07 282.13Q173.38 284.39 172.81 287.62Q172.54 289.1 171.83 290.15Q171.12 291.2 170.27 291.86Q169.44 292.52 168.14 293.29Q166.72 294.13 166.01 294.77Q165.29 295.41 165.12 296.4L158.66 295.26ZM160.2 305.4Q158.42 305.08 157.45 303.77Q156.49 302.46 156.77 300.87Q157.06 299.23 158.39 298.39Q159.72 297.53 161.53 297.85Q163.35 298.18 164.32 299.43Q165.3 300.68 165.01 302.32Q164.72 303.91 163.37 304.82Q162.01 305.72 160.2 305.4Z" stroke="#202027" stroke-opacity="1.000000" stroke-width="0.575447"/>
		<rect id="Frame 2043683093" rx="19.750000" width="243.932220" height="72.725060" transform="translate(-40.544922 222.340576) rotate(10.000001)" stroke="#202027" stroke-opacity="1.000000" stroke-width="0.500000"/>
		<rect id="Frame 2043683095" rx="19.750000" width="216.932220" height="72.725060" transform="translate(207.030273 265.994751) rotate(10.000001)" fill="#FFEC8F" fill-opacity="1.000000"/>
		<path id="10 − 4 = ?" d="M241.63 318.9Q243.61 320.29 246.23 320.75Q248.68 321.18 250.89 320.65Q251.6 320.48 252.27 320.21Q252.78 320.01 253.27 319.75Q255.45 318.6 257.04 316.36Q259.01 313.62 259.74 309.52Q260.46 305.43 259.56 302.18Q258.82 299.53 257.17 297.7Q256.81 297.3 256.4 296.93Q255.83 296.43 255.22 296.02Q253.33 294.78 250.91 294.35Q248.31 293.89 246 294.51Q245.4 294.66 244.82 294.89Q244.35 295.08 243.91 295.31Q241.69 296.46 240.05 298.74Q238.08 301.48 237.36 305.57Q236.63 309.67 237.54 312.92Q238.29 315.62 239.98 317.46Q240.32 317.83 240.7 318.17Q241.15 318.56 241.63 318.9ZM381.16 331.4Q380.15 332.44 379.83 334.26L386.28 335.39Q386.39 334.81 386.68 334.35Q386.88 334.03 387.18 333.77Q387.89 333.13 389.31 332.29Q390.61 331.52 391.44 330.86Q392.29 330.2 393 329.15Q393.71 328.09 393.98 326.62Q394.27 324.95 393.8 323.54Q393.35 322.22 392.24 321.12Q389.93 318.86 385.61 318.1Q381.77 317.42 378.79 318.36Q376.92 318.95 375.46 320.07Q374.6 320.73 373.88 321.57L378.78 325.42Q379.42 324.68 380.23 324.21Q380.61 323.99 381.03 323.84Q381.39 323.7 381.76 323.63Q382.73 323.43 383.78 323.61Q385.19 323.86 385.96 324.65Q386.39 325.09 386.53 325.6Q386.64 326.03 386.55 326.5Q386.52 326.69 386.46 326.87Q386.26 327.41 385.79 327.85Q385.16 328.42 383.94 329.22Q382.17 330.36 381.16 331.4ZM231.31 317.6L235.8 292.22L223.91 290.12L222.93 295.66L227.64 296.49L224.12 316.33L231.31 317.6ZM324.18 328.96L327.96 329.63L328.97 323.94L325.19 323.27L325.96 318.96L319.17 317.76L318.41 322.07L313.26 321.17L326.22 308.16L318.79 306.85L304.59 320.69L303.76 325.36L317.18 327.73L316.32 332.59L323.32 333.82L324.18 328.96ZM248.56 314.86Q247.95 315 247.27 314.88Q246.55 314.75 246 314.38Q245.13 313.8 244.66 312.6Q243.9 310.65 244.58 306.85Q245.25 303.04 246.63 301.47Q247.48 300.51 248.5 300.26Q249.15 300.1 249.87 300.23Q250.54 300.35 251.07 300.69Q251.96 301.27 252.43 302.5Q253.19 304.44 252.52 308.25Q251.85 312.05 250.46 313.63Q249.6 314.62 248.56 314.86ZM361.38 320L343.5 316.85L342.57 322.11L360.44 325.26L361.38 320ZM291.98 312.48L274.1 309.32L273.17 314.62L291.04 317.77L291.98 312.48ZM359.75 329.18L341.87 326.03L340.94 331.29L358.82 334.44L359.75 329.18ZM379.31 343.5Q380.15 344.18 381.37 344.4Q382.67 344.63 383.74 344.22Q384.16 344.07 384.54 343.81Q385.23 343.35 385.64 342.72Q386.04 342.1 386.18 341.32Q386.34 340.38 386.09 339.57Q385.91 338.97 385.49 338.43Q385.27 338.14 385 337.91Q384.1 337.1 382.7 336.85Q381.28 336.6 380.16 337.07Q379.85 337.2 379.56 337.38Q379.01 337.73 378.64 338.22Q378.11 338.91 377.94 339.87Q377.8 340.65 377.96 341.36Q378.13 342.1 378.62 342.77Q378.93 343.18 379.31 343.5Z" fill="#FFFFFF" fill-opacity="1.000000" fill-rule="evenodd"/>
		<path id="10 − 4 = ?" d="M235.8 292.22L231.31 317.6L224.12 316.33L227.64 296.49L222.93 295.66L223.91 290.12L235.8 292.22ZM246.23 320.75Q242.96 320.17 240.7 318.17Q238.44 316.16 237.54 312.92Q236.63 309.67 237.36 305.57Q238.08 301.48 240.05 298.74Q242.01 296 244.82 294.89Q247.64 293.77 250.91 294.35Q254.13 294.92 256.4 296.93Q258.66 298.94 259.56 302.18Q260.46 305.43 259.74 309.52Q259.01 313.62 257.04 316.36Q255.09 319.1 252.27 320.21Q249.46 321.32 246.23 320.75ZM247.27 314.88Q249.09 315.2 250.46 313.63Q251.85 312.05 252.52 308.25Q253.19 304.44 252.43 302.5Q251.68 300.55 249.87 300.23Q248.02 299.9 246.63 301.47Q245.25 303.04 244.58 306.85Q243.9 310.65 244.66 312.6Q245.42 314.55 247.27 314.88ZM274.1 309.32L291.98 312.48L291.04 317.77L273.17 314.62L274.1 309.32ZM327.96 329.63L324.18 328.96L323.32 333.82L316.32 332.59L317.18 327.73L303.76 325.36L304.59 320.69L318.79 306.85L326.22 308.16L313.26 321.17L318.41 322.07L319.17 317.76L325.96 318.96L325.19 323.27L328.97 323.94L327.96 329.63ZM343.5 316.85L361.38 320L360.44 325.26L342.57 322.11L343.5 316.85ZM341.87 326.03L359.75 329.18L358.82 334.44L340.94 331.29L341.87 326.03ZM379.83 334.26Q380.15 332.44 381.16 331.4Q382.17 330.36 383.94 329.22Q385.16 328.42 385.79 327.85Q386.42 327.26 386.55 326.5Q386.74 325.45 385.96 324.65Q385.19 323.86 383.78 323.61Q382.33 323.36 381.03 323.84Q379.73 324.32 378.78 325.42L373.88 321.57Q375.82 319.3 378.79 318.36Q381.77 317.42 385.61 318.1Q389.93 318.86 392.24 321.12Q394.55 323.38 393.98 326.62Q393.71 328.09 393 329.15Q392.29 330.2 391.44 330.86Q390.61 331.52 389.31 332.29Q387.89 333.13 387.18 333.77Q386.46 334.41 386.28 335.39L379.83 334.26ZM381.37 344.4Q379.59 344.08 378.62 342.77Q377.66 341.46 377.94 339.87Q378.23 338.23 379.56 337.38Q380.89 336.53 382.7 336.85Q384.52 337.17 385.49 338.43Q386.47 339.68 386.18 341.32Q385.89 342.91 384.54 343.81Q383.18 344.72 381.37 344.4Z" stroke="#202027" stroke-opacity="1.000000" stroke-width="0.575447"/>
		<rect id="Frame 2043683095" rx="19.750000" width="216.932220" height="72.725060" transform="translate(207.030273 265.994751) rotate(10.000001)" stroke="#202027" stroke-opacity="1.000000" stroke-width="0.500000"/>
	</g>
</svg>
