<svg width="343.000000" height="284.925934" viewBox="0 0 343 284.926" fill="none" xmlns="http://www.w3.org/2000/svg" xmlns:xlink="http://www.w3.org/1999/xlink">
	<desc>
			Created with Pixso.
	</desc>
	<defs>
		<clipPath id="clip17_6106">
			<rect id="Обложка карточки" rx="29.713888" width="342.427765" height="284.353699" transform="translate(0.286112 0.286112)" fill="white" fill-opacity="0"/>
		</clipPath>
	</defs>
	<rect id="Обложка карточки" rx="29.713888" width="342.427765" height="284.353699" transform="translate(0.286112 0.286112)" fill="#565EEF" fill-opacity="1.000000"/>
	<g clip-path="url(#clip17_6106)">
		<rect id="Frame 2043683076" rx="16.975700" width="121.856773" height="72.649612" transform="translate(-118.527702 -65.035637) rotate(10.000001)" fill="#B0AEFF" fill-opacity="1.000000"/>
		<path id="рыс" d="M-84.69 -31.7Q-86.27 -32.66 -88.22 -33.01Q-91.49 -33.58 -93.66 -32.3Q-94.06 -32.06 -94.43 -31.75L-94.09 -33.7L-100.65 -34.86L-105.38 -8.17L-98.49 -6.95L-96.93 -15.73Q-96.56 -15.2 -96.11 -14.75Q-94.51 -13.17 -91.82 -12.7Q-89.84 -12.35 -88.01 -12.72Q-87.36 -12.86 -86.73 -13.09Q-85.86 -13.4 -85.09 -13.86Q-83.7 -14.7 -82.62 -16.03Q-80.92 -18.11 -80.38 -21.15Q-79.84 -24.2 -80.72 -26.73Q-81.29 -28.36 -82.31 -29.62Q-82.87 -30.31 -83.57 -30.89Q-84.11 -31.34 -84.69 -31.7ZM-42.37 -5.32Q-40.02 -3.56 -36.76 -2.99Q-33.43 -2.4 -30.75 -3.41Q-29.18 -3.99 -28.02 -5.04Q-27.2 -5.78 -26.59 -6.76L-31.44 -10.43Q-32.58 -8.92 -34.02 -8.53Q-34.87 -8.31 -35.83 -8.48Q-36.94 -8.67 -37.74 -9.28Q-38.28 -9.68 -38.67 -10.26Q-38.78 -10.43 -38.88 -10.6Q-39.62 -11.97 -39.27 -13.94Q-38.94 -15.84 -37.81 -16.85Q-37.64 -17 -37.46 -17.13Q-36.9 -17.53 -36.29 -17.72Q-35.31 -18.03 -34.17 -17.82Q-33.21 -17.66 -32.49 -17.15Q-31.27 -16.3 -30.72 -14.49L-24.91 -16.27Q-25.14 -17.4 -25.66 -18.38Q-26.38 -19.76 -27.66 -20.85Q-29.83 -22.71 -33.17 -23.3Q-36.43 -23.87 -39.23 -23.04Q-41.19 -22.46 -42.68 -21.28Q-43.32 -20.77 -43.88 -20.16Q-44.3 -19.68 -44.66 -19.16Q-45.83 -17.43 -46.23 -15.17Q-46.62 -12.95 -46.14 -10.94Q-45.99 -10.29 -45.74 -9.66Q-45.43 -8.88 -45 -8.17Q-44 -6.55 -42.37 -5.32ZM-59.64 -19.55Q-61.29 -21.6 -65.17 -22.32L-69.56 -23.1L-68.48 -29.19L-75.33 -30.4L-78.81 -10.74L-68.44 -8.91Q-64.31 -8.15 -61.71 -9.6Q-60.83 -10.09 -60.17 -10.8Q-58.92 -12.17 -58.53 -14.34Q-58.1 -16.78 -58.99 -18.55Q-59.26 -19.08 -59.64 -19.55ZM-47.77 -25.54L-54.62 -26.74L-58.1 -7.09L-51.25 -5.88L-47.77 -25.54ZM-90.28 -18.54Q-91.21 -18.24 -92.3 -18.43Q-93.39 -18.62 -94.16 -19.22Q-94.68 -19.62 -95.05 -20.21Q-95.13 -20.33 -95.2 -20.45Q-95.96 -21.84 -95.61 -23.84Q-95.25 -25.83 -94.06 -26.88Q-93.96 -26.97 -93.84 -27.06Q-93.28 -27.48 -92.66 -27.68Q-91.73 -27.97 -90.64 -27.78Q-89.56 -27.59 -88.79 -26.99Q-88.27 -26.59 -87.89 -26.01Q-87.81 -25.89 -87.74 -25.76Q-86.98 -24.37 -87.34 -22.38Q-87.69 -20.38 -88.88 -19.34Q-88.99 -19.24 -89.1 -19.16Q-89.66 -18.74 -90.28 -18.54ZM-66.08 -14.09Q-66.86 -13.49 -68.29 -13.74L-71.12 -14.29L-70.3 -18.89L-67.47 -18.39Q-66.17 -18.13 -65.62 -17.46Q-65.55 -17.39 -65.5 -17.3Q-65.08 -16.67 -65.26 -15.65Q-65.45 -14.58 -66.08 -14.09Z" fill="#FFFFFF" fill-opacity="1.000000" fill-rule="evenodd"/>
		<path id="рыс" d="M-88.22 -33.01Q-85.54 -32.53 -83.57 -30.89Q-81.6 -29.25 -80.72 -26.73Q-79.84 -24.2 -80.38 -21.15Q-80.92 -18.11 -82.62 -16.03Q-84.31 -13.96 -86.73 -13.09Q-89.13 -12.22 -91.82 -12.7Q-95.27 -13.31 -96.93 -15.73L-98.49 -6.95L-105.38 -8.17L-100.65 -34.86L-94.09 -33.7L-94.43 -31.75Q-92.11 -33.69 -88.22 -33.01ZM-92.3 -18.43Q-90.48 -18.11 -89.1 -19.16Q-87.72 -20.2 -87.34 -22.38Q-86.95 -24.56 -87.89 -26.01Q-88.83 -27.46 -90.64 -27.78Q-92.46 -28.1 -93.84 -27.06Q-95.22 -26.01 -95.61 -23.84Q-95.99 -21.66 -95.05 -20.21Q-94.11 -18.75 -92.3 -18.43ZM-65.17 -22.32Q-61.29 -21.6 -59.64 -19.55Q-57.98 -17.5 -58.53 -14.34Q-59.12 -11.05 -61.71 -9.6Q-64.31 -8.15 -68.44 -8.91L-78.81 -10.74L-75.33 -30.4L-68.48 -29.19L-69.56 -23.1L-65.17 -22.32ZM-54.62 -26.74L-47.77 -25.54L-51.25 -5.88L-58.1 -7.09L-54.62 -26.74ZM-68.29 -13.74Q-65.68 -13.28 -65.26 -15.65Q-65.06 -16.81 -65.62 -17.46Q-66.17 -18.13 -67.47 -18.39L-70.3 -18.89L-71.12 -14.29L-68.29 -13.74ZM-36.76 -2.99Q-40.02 -3.56 -42.37 -5.32Q-44.71 -7.08 -45.74 -9.66Q-46.75 -12.23 -46.23 -15.17Q-45.71 -18.11 -43.88 -20.16Q-42.04 -22.21 -39.23 -23.04Q-36.43 -23.87 -33.17 -23.3Q-29.83 -22.71 -27.66 -20.85Q-25.48 -18.98 -24.91 -16.27L-30.72 -14.49Q-31.6 -17.37 -34.17 -17.82Q-36.02 -18.15 -37.46 -17.13Q-38.89 -16.12 -39.27 -13.94Q-39.66 -11.73 -38.67 -10.26Q-37.68 -8.8 -35.83 -8.48Q-33.25 -8.02 -31.44 -10.43L-26.59 -6.76Q-28.06 -4.41 -30.75 -3.41Q-33.43 -2.4 -36.76 -2.99Z" stroke="#202027" stroke-opacity="1.000000" stroke-width="0.575447"/>
		<rect id="Frame 2043683076" rx="16.975700" width="121.856773" height="72.649612" transform="translate(-118.527702 -65.035637) rotate(10.000001)" stroke="#202027" stroke-opacity="1.000000" stroke-width="0.575447"/>
		<rect id="Frame 2043683071" rx="16.975700" width="173.856766" height="72.649612" transform="translate(8.901005 -42.566525) rotate(10.000001)" fill="#B0AEFF" fill-opacity="1.000000"/>
		<path id="акшок" d="M42.09 -7.73Q39.91 -10.41 35.01 -11.28Q34.88 -11.3 34.74 -11.32Q32.52 -11.68 30.21 -11.5Q27.76 -11.32 25.94 -10.52L27.43 -5.43Q28.59 -6.05 30.12 -6.25Q31.66 -6.45 33.06 -6.2Q35.57 -5.76 36.36 -4.35Q36.82 -3.52 36.68 -2.35L32.77 -3.04Q28.31 -3.82 25.89 -2.66Q24.86 -2.16 24.18 -1.37Q23.27 -0.3 22.99 1.3Q22.76 2.6 23.04 3.78Q23.14 4.17 23.29 4.55Q23.34 4.67 23.39 4.79Q24.02 6.15 25.42 7.15Q26.95 8.25 29.24 8.65Q32.49 9.22 34.43 7.89Q35.06 7.45 35.55 6.8L35.1 9.35L41.52 10.48L43.46 -0.44Q44.18 -4.54 42.53 -7.12Q42.33 -7.43 42.09 -7.73ZM110.13 21.75Q112.34 23.3 115.28 23.82Q118.39 24.37 121.1 23.57Q121.17 23.55 121.24 23.53Q123.11 22.95 124.55 21.81Q125.24 21.27 125.83 20.6Q126.26 20.1 126.62 19.56Q127.78 17.83 128.18 15.59Q128.58 13.3 128.06 11.25Q127.91 10.67 127.69 10.09Q127.37 9.27 126.91 8.54Q125.94 6.99 124.37 5.81Q124.34 5.79 124.31 5.77Q122.02 4.06 118.87 3.51Q115.69 2.95 112.93 3.8Q111.21 4.32 109.84 5.33Q109.02 5.93 108.34 6.7Q107.81 7.29 107.4 7.95Q106.35 9.6 105.99 11.67Q105.59 13.89 106.07 15.9Q106.23 16.55 106.48 17.18Q106.82 18.05 107.31 18.82Q108.28 20.35 109.81 21.51Q109.97 21.63 110.13 21.75ZM53.79 5.42L56.12 5.83L59.44 13.64L67.56 15.07L62.34 3.6L70.61 -4.66L63.32 -5.95L57.21 0.45L54.74 0.02L56.03 -7.23L49.14 -8.45L45.66 11.21L52.55 12.42L53.79 5.42ZM101.01 20.97L104.49 1.31L97.67 0.11L95.17 14.25L89.87 13.31L92.38 -0.82L85.51 -2.03L83.01 12.1L77.68 11.16L80.18 -2.97L73.33 -4.18L69.85 15.47L101.01 20.97ZM137.79 20.23L140.12 20.64L143.44 28.45L151.56 29.88L146.34 18.42L154.61 10.15L147.32 8.86L141.21 15.26L138.74 14.83L140.03 7.58L133.14 6.36L129.66 26.02L136.55 27.23L137.79 20.23ZM118.26 18.23Q117.33 18.53 116.25 18.34Q115.16 18.15 114.39 17.55Q113.87 17.15 113.49 16.57Q113.43 16.48 113.38 16.38Q112.58 14.98 112.95 12.9Q113.3 10.9 114.5 9.87Q114.6 9.78 114.71 9.7Q115.24 9.3 115.85 9.1Q116.79 8.79 117.9 8.99Q119.01 9.19 119.8 9.8Q120.29 10.19 120.66 10.75Q120.74 10.86 120.8 10.98Q121.57 12.35 121.22 14.36Q120.85 16.44 119.61 17.48Q119.53 17.55 119.44 17.62Q118.89 18.04 118.26 18.23ZM33.85 4.53Q32.97 4.81 31.93 4.63Q30.74 4.42 30.14 3.76Q29.87 3.45 29.76 3.1Q29.63 2.68 29.72 2.19Q29.82 1.58 30.18 1.21Q30.99 0.36 33.08 0.73L36.05 1.25L35.74 2.95Q35.3 3.73 34.63 4.17Q34.4 4.32 34.14 4.43Q34 4.49 33.85 4.53Z" fill="#FFFFFF" fill-opacity="1.000000" fill-rule="evenodd"/>
		<path id="акшок" d="M35.01 -11.28Q39.91 -10.41 42.09 -7.73Q44.27 -5.04 43.46 -0.44L41.52 10.48L35.1 9.35L35.55 6.8Q33.56 9.41 29.24 8.65Q26.95 8.25 25.42 7.15Q23.9 6.06 23.29 4.55Q22.68 3.04 22.99 1.3Q23.48 -1.5 25.89 -2.66Q28.31 -3.82 32.77 -3.04L36.68 -2.35Q37.06 -5.49 33.06 -6.2Q31.66 -6.45 30.12 -6.25Q28.59 -6.05 27.43 -5.43L25.94 -10.52Q27.76 -11.32 30.21 -11.5Q32.66 -11.69 35.01 -11.28ZM31.93 4.63Q33.14 4.84 34.14 4.43Q35.15 4 35.74 2.95L36.05 1.25L33.08 0.73Q30.07 0.2 29.72 2.19Q29.56 3.09 30.14 3.76Q30.74 4.42 31.93 4.63ZM56.12 5.83L53.79 5.42L52.55 12.42L45.66 11.21L49.14 -8.45L56.03 -7.23L54.74 0.02L57.21 0.45L63.32 -5.95L70.61 -4.66L62.34 3.6L67.56 15.07L59.44 13.64L56.12 5.83ZM104.49 1.31L101.01 20.97L69.85 15.47L73.33 -4.18L80.18 -2.97L77.68 11.16L83.01 12.1L85.51 -2.03L92.38 -0.82L89.87 13.31L95.17 14.25L97.67 0.11L104.49 1.31ZM115.28 23.82Q112.12 23.26 109.81 21.51Q107.5 19.76 106.48 17.18Q105.47 14.61 105.99 11.67Q106.5 8.77 108.34 6.7Q110.18 4.63 112.93 3.8Q115.69 2.95 118.87 3.51Q122.06 4.07 124.37 5.81Q126.69 7.54 127.69 10.09Q128.7 12.65 128.18 15.59Q127.66 18.53 125.83 20.6Q124.01 22.67 121.24 23.53Q118.46 24.38 115.28 23.82ZM116.25 18.34Q118.06 18.66 119.44 17.62Q120.82 16.57 121.22 14.36Q121.6 12.18 120.66 10.75Q119.72 9.31 117.9 8.99Q116.09 8.67 114.71 9.7Q113.33 10.72 112.95 12.9Q112.55 15.11 113.49 16.57Q114.43 18.02 116.25 18.34ZM140.12 20.64L137.79 20.23L136.55 27.23L129.66 26.02L133.14 6.36L140.03 7.58L138.74 14.83L141.21 15.26L147.32 8.86L154.61 10.15L146.34 18.42L151.56 29.88L143.44 28.45L140.12 20.64Z" stroke="#202027" stroke-opacity="1.000000" stroke-width="0.575447"/>
		<rect id="Frame 2043683071" rx="16.975700" width="173.856766" height="72.649612" transform="translate(8.901005 -42.566525) rotate(10.000001)" stroke="#202027" stroke-opacity="1.000000" stroke-width="0.575447"/>
		<rect id="Frame 2043683075" rx="16.975700" width="180.856766" height="72.649612" transform="translate(187.538696 -11.067745) rotate(10.000001)" fill="#B0AEFF" fill-opacity="1.000000"/>
		<path id="агудар" d="M220.91 23.8Q218.73 21.12 213.84 20.25Q213.7 20.23 213.56 20.21Q211.34 19.85 209.03 20.03Q206.58 20.21 204.76 21.01L206.25 26.1Q207.41 25.48 208.95 25.28Q210.48 25.09 211.89 25.33Q214.39 25.78 215.18 27.18Q215.64 28.01 215.5 29.19L211.59 28.5Q207.13 27.71 204.71 28.87Q203.69 29.37 203.01 30.16Q202.09 31.23 201.81 32.83Q201.58 34.13 201.86 35.31Q201.96 35.7 202.11 36.08Q202.16 36.21 202.22 36.33Q202.84 37.68 204.24 38.69Q205.78 39.78 208.06 40.18Q211.31 40.75 213.25 39.42Q213.88 38.98 214.38 38.34L213.93 40.88L220.35 42.01L222.28 31.09Q223.01 26.99 221.36 24.41Q221.15 24.1 220.91 23.8ZM310.32 39.57Q308.14 36.88 303.24 36.02Q303.1 35.99 302.97 35.97Q300.74 35.61 298.43 35.79Q295.99 35.97 294.17 36.77L295.66 41.87Q296.82 41.24 298.35 41.05Q299.88 40.85 301.29 41.1Q303.79 41.54 304.58 42.94Q305.05 43.78 304.91 44.95L300.99 44.26Q296.53 43.47 294.12 44.64Q293.09 45.13 292.41 45.93Q291.5 46.99 291.21 48.6Q290.98 49.9 291.27 51.07Q291.36 51.47 291.51 51.85Q291.56 51.97 291.62 52.09Q292.25 53.45 293.65 54.45Q295.18 55.54 297.46 55.94Q300.72 56.52 302.65 55.18Q303.29 54.74 303.78 54.1L303.33 56.64L309.75 57.77L311.68 46.86Q312.41 42.76 310.76 40.18Q310.56 39.86 310.32 39.57ZM333.32 42.01Q331.75 41.05 329.79 40.7Q326.52 40.12 324.36 41.41Q323.95 41.65 323.58 41.96L323.93 40L317.36 38.85L312.64 65.54L319.52 66.76L321.08 57.97Q321.45 58.51 321.91 58.96Q323.51 60.54 326.19 61.01Q328.17 61.36 330 60.98Q330.65 60.85 331.29 60.62Q332.15 60.31 332.93 59.84Q334.31 59.01 335.4 57.68Q337.1 55.6 337.64 52.56Q338.18 49.51 337.29 46.98Q336.72 45.35 335.7 44.09Q335.14 43.4 334.44 42.82Q333.91 42.37 333.32 42.01ZM233.85 29.76L243.46 31.46L244.43 25.99L227.96 23.08L224.48 42.74L231.33 43.95L233.85 29.76ZM256.18 49.15L268.3 30.19L261.73 29.04L254.74 40.18L252.05 27.33L244.97 26.08L249.86 47.48Q249.27 48.27 248.56 48.55Q247.86 48.84 246.88 48.67Q246.75 48.65 246.63 48.62Q245.93 48.45 245.29 48.07Q244.53 47.61 244.04 46.97L240.79 51.38Q241.63 52.34 243.12 53.11Q244.62 53.88 246.17 54.15Q249.12 54.67 251.43 53.7Q251.54 53.65 251.65 53.6Q254.05 52.52 256.18 49.15ZM288 58.13L289.69 48.55L286.97 48.07L289.47 33.93L271.3 30.72L269.84 37.53Q269.08 40.95 268.05 42.73Q267.44 43.8 266.56 44.13Q265.96 44.35 265.25 44.24L264.52 44.11L262.82 53.69L269.24 54.82L269.96 50.76L282.33 52.94L281.61 57L288 58.13ZM327.73 55.17Q326.8 55.47 325.71 55.27Q324.63 55.08 323.85 54.49Q323.34 54.08 322.96 53.5Q322.88 53.38 322.81 53.25Q322.05 51.87 322.41 49.87Q322.76 47.87 323.95 46.83Q324.06 46.74 324.17 46.65Q324.73 46.23 325.35 46.03Q326.28 45.73 327.37 45.92Q328.46 46.12 329.23 46.71Q329.75 47.11 330.12 47.7Q330.2 47.82 330.27 47.95Q331.03 49.33 330.68 51.33Q330.32 53.32 329.13 54.37Q329.03 54.46 328.91 54.55Q328.35 54.97 327.73 55.17ZM274.8 43.31Q275.37 41.76 275.95 39.13L276.35 37.26L281.61 38.19L280.08 46.85L273.26 45.65Q274.22 44.85 274.8 43.31ZM212.68 36.06Q211.79 36.35 210.75 36.16Q209.56 35.95 208.96 35.29Q208.69 34.98 208.58 34.63Q208.45 34.21 208.54 33.72Q208.65 33.11 209 32.74Q209.81 31.89 211.9 32.26L214.87 32.78L214.57 34.48Q214.12 35.26 213.45 35.7Q213.22 35.85 212.96 35.96Q212.82 36.02 212.68 36.06ZM302.08 51.83Q301.19 52.11 300.16 51.93Q298.96 51.72 298.37 51.05Q298.1 50.75 297.99 50.39Q297.85 49.97 297.94 49.48Q298.05 48.88 298.4 48.5Q299.21 47.65 301.3 48.02L304.27 48.54L303.97 50.24Q303.53 51.03 302.85 51.46Q302.62 51.61 302.37 51.72Q302.22 51.78 302.08 51.83Z" fill="#FFFFFF" fill-opacity="1.000000" fill-rule="evenodd"/>
		<path id="агудар" d="M213.84 20.25Q218.73 21.12 220.91 23.8Q223.1 26.49 222.28 31.09L220.35 42.01L213.93 40.88L214.38 38.34Q212.38 40.94 208.06 40.18Q205.78 39.78 204.24 38.69Q202.72 37.59 202.11 36.08Q201.5 34.57 201.81 32.83Q202.31 30.04 204.71 28.87Q207.13 27.71 211.59 28.5L215.5 29.19Q215.88 26.04 211.89 25.33Q210.48 25.09 208.95 25.28Q207.41 25.48 206.25 26.1L204.76 21.01Q206.58 20.21 209.03 20.03Q211.48 19.84 213.84 20.25ZM210.75 36.16Q211.96 36.38 212.96 35.96Q213.97 35.53 214.57 34.48L214.87 32.78L211.9 32.26Q208.89 31.73 208.54 33.72Q208.38 34.62 208.96 35.29Q209.56 35.95 210.75 36.16ZM243.46 31.46L233.85 29.76L231.33 43.95L224.48 42.74L227.96 23.08L244.43 25.99L243.46 31.46ZM268.3 30.19L256.18 49.15Q254.05 52.52 251.65 53.6Q249.26 54.69 246.17 54.15Q244.62 53.88 243.12 53.11Q241.63 52.34 240.79 51.38L244.04 46.97Q244.53 47.61 245.29 48.07Q246.05 48.52 246.88 48.67Q247.86 48.84 248.56 48.55Q249.27 48.27 249.86 47.48L244.97 26.08L252.05 27.33L254.74 40.18L261.73 29.04L268.3 30.19ZM289.69 48.55L288 58.13L281.61 57L282.33 52.94L269.96 50.76L269.24 54.82L262.82 53.69L264.52 44.11L265.25 44.24Q267.03 44.52 268.05 42.73Q269.08 40.95 269.84 37.53L271.3 30.72L289.47 33.93L286.97 48.07L289.69 48.55ZM275.95 39.13Q275.37 41.76 274.8 43.31Q274.22 44.85 273.26 45.65L280.08 46.85L281.61 38.19L276.35 37.26L275.95 39.13ZM303.24 36.02Q308.14 36.88 310.32 39.57Q312.5 42.25 311.68 46.86L309.75 57.77L303.33 56.64L303.78 54.1Q301.78 56.71 297.46 55.94Q295.18 55.54 293.65 54.45Q292.12 53.36 291.51 51.85Q290.91 50.33 291.21 48.6Q291.71 45.8 294.12 44.64Q296.53 43.47 300.99 44.26L304.91 44.95Q305.28 41.8 301.29 41.1Q299.88 40.85 298.35 41.05Q296.82 41.24 295.66 41.87L294.17 36.77Q295.99 35.97 298.43 35.79Q300.88 35.6 303.24 36.02ZM300.16 51.93Q301.36 52.14 302.37 51.72Q303.37 51.3 303.97 50.24L304.27 48.54L301.3 48.02Q298.29 47.49 297.94 49.48Q297.78 50.39 298.37 51.05Q298.96 51.72 300.16 51.93ZM329.79 40.7Q332.48 41.17 334.44 42.82Q336.41 44.45 337.29 46.98Q338.18 49.51 337.64 52.56Q337.1 55.6 335.4 57.68Q333.7 59.75 331.29 60.62Q328.88 61.48 326.19 61.01Q322.74 60.4 321.08 57.97L319.52 66.76L312.64 65.54L317.36 38.85L323.93 40L323.58 41.96Q325.9 40.02 329.79 40.7ZM325.71 55.27Q327.53 55.59 328.91 54.55Q330.29 53.51 330.68 51.33Q331.06 49.15 330.12 47.7Q329.18 46.24 327.37 45.92Q325.55 45.6 324.17 46.65Q322.79 47.69 322.41 49.87Q322.02 52.05 322.96 53.5Q323.9 54.95 325.71 55.27Z" stroke="#202027" stroke-opacity="1.000000" stroke-width="0.575447"/>
		<rect id="Frame 2043683075" rx="16.975700" width="180.856766" height="72.649612" transform="translate(187.538696 -11.067745) rotate(10.000001)" stroke="#202027" stroke-opacity="1.000000" stroke-width="0.575447"/>
		<rect id="Frame 2043683073" rx="16.975700" width="121.856773" height="72.649612" transform="translate(373.070923 21.646488) rotate(10.000001)" fill="#B0AEFF" fill-opacity="1.000000"/>
		<path id="рыс" d="M406.91 54.99Q405.33 54.02 403.38 53.68Q400.11 53.1 397.94 54.38Q397.54 54.63 397.17 54.94L397.51 52.98L390.95 51.82L386.22 78.52L393.11 79.73L394.67 70.95Q395.04 71.49 395.49 71.94Q397.09 73.51 399.78 73.99Q401.76 74.33 403.59 73.96Q404.24 73.82 404.87 73.6Q405.74 73.28 406.51 72.82Q407.9 71.98 408.98 70.65Q410.68 68.58 411.22 65.53Q411.76 62.49 410.88 59.96Q410.31 58.32 409.29 57.06Q408.73 56.37 408.03 55.79Q407.49 55.35 406.91 54.99ZM449.23 81.36Q451.58 83.12 454.84 83.69Q458.17 84.28 460.85 83.28Q462.42 82.69 463.58 81.64Q464.4 80.9 465.01 79.92L460.16 76.25Q459.02 77.76 457.58 78.15Q456.73 78.38 455.77 78.21Q454.66 78.01 453.86 77.41Q453.32 77 452.93 76.42Q452.82 76.26 452.72 76.08Q451.98 74.71 452.33 72.74Q452.66 70.85 453.79 69.83Q453.96 69.68 454.14 69.55Q454.7 69.16 455.31 68.96Q456.29 68.66 457.43 68.86Q458.39 69.03 459.11 69.53Q460.33 70.38 460.88 72.2L466.69 70.41Q466.46 69.28 465.94 68.3Q465.22 66.92 463.94 65.83Q461.77 63.97 458.43 63.38Q455.17 62.81 452.37 63.65Q450.41 64.23 448.92 65.4Q448.28 65.91 447.72 66.53Q447.3 67 446.94 67.52Q445.77 69.26 445.37 71.52Q444.98 73.73 445.46 75.74Q445.61 76.39 445.86 77.03Q446.17 77.8 446.6 78.51Q447.6 80.13 449.23 81.36ZM431.96 67.13Q430.31 65.08 426.43 64.36L422.04 63.59L423.12 57.49L416.27 56.29L412.79 75.94L423.16 77.77Q427.29 78.54 429.89 77.08Q430.77 76.59 431.43 75.88Q432.68 74.51 433.07 72.34Q433.5 69.91 432.61 68.13Q432.34 67.6 431.96 67.13ZM443.83 61.15L436.98 59.94L433.5 79.59L440.35 80.8L443.83 61.15ZM401.32 68.14Q400.39 68.44 399.3 68.25Q398.21 68.06 397.44 67.46Q396.92 67.06 396.55 66.48Q396.47 66.36 396.4 66.23Q395.64 64.84 395.99 62.85Q396.35 60.85 397.54 59.81Q397.64 59.71 397.76 59.62Q398.32 59.2 398.94 59.01Q399.87 58.71 400.96 58.9Q402.04 59.09 402.81 59.69Q403.33 60.09 403.71 60.67Q403.79 60.79 403.86 60.92Q404.62 62.31 404.26 64.3Q403.91 66.3 402.72 67.34Q402.61 67.44 402.5 67.53Q401.94 67.94 401.32 68.14ZM425.52 72.59Q424.74 73.19 423.31 72.94L420.48 72.4L421.3 67.79L424.13 68.29Q425.43 68.56 425.98 69.22Q426.05 69.3 426.1 69.38Q426.52 70.01 426.34 71.04Q426.15 72.1 425.52 72.59Z" fill="#FFFFFF" fill-opacity="1.000000" fill-rule="evenodd"/>
		<path id="рыс" d="M403.38 53.68Q406.06 54.15 408.03 55.79Q410 57.43 410.88 59.96Q411.76 62.49 411.22 65.53Q410.68 68.58 408.98 70.65Q407.29 72.73 404.87 73.6Q402.47 74.46 399.78 73.99Q396.33 73.38 394.67 70.95L393.11 79.73L386.22 78.52L390.95 51.82L397.51 52.98L397.17 54.94Q399.49 52.99 403.38 53.68ZM399.3 68.25Q401.12 68.57 402.5 67.53Q403.88 66.48 404.26 64.3Q404.65 62.13 403.71 60.67Q402.77 59.22 400.96 58.9Q399.14 58.58 397.76 59.62Q396.38 60.67 395.99 62.85Q395.61 65.02 396.55 66.48Q397.49 67.93 399.3 68.25ZM426.43 64.36Q430.31 65.08 431.96 67.13Q433.62 69.18 433.07 72.34Q432.48 75.63 429.89 77.08Q427.29 78.54 423.16 77.77L412.79 75.94L416.27 56.29L423.12 57.49L422.04 63.59L426.43 64.36ZM436.98 59.94L443.83 61.15L440.35 80.8L433.5 79.59L436.98 59.94ZM423.31 72.94Q425.92 73.4 426.34 71.04Q426.54 69.88 425.98 69.22Q425.43 68.56 424.13 68.29L421.3 67.79L420.48 72.4L423.31 72.94ZM454.84 83.69Q451.58 83.12 449.23 81.36Q446.89 79.6 445.86 77.03Q444.85 74.45 445.37 71.52Q445.89 68.58 447.72 66.53Q449.56 64.48 452.37 63.65Q455.17 62.81 458.43 63.38Q461.77 63.97 463.94 65.83Q466.12 67.7 466.69 70.41L460.88 72.2Q460 69.31 457.43 68.86Q455.58 68.53 454.14 69.55Q452.71 70.56 452.33 72.74Q451.94 74.96 452.93 76.42Q453.92 77.88 455.77 78.21Q458.35 78.66 460.16 76.25L465.01 79.92Q463.54 82.27 460.85 83.28Q458.17 84.28 454.84 83.69Z" stroke="#202027" stroke-opacity="1.000000" stroke-width="0.575447"/>
		<rect id="Frame 2043683073" rx="16.975700" width="121.856773" height="72.649612" transform="translate(373.070923 21.646488) rotate(10.000001)" stroke="#202027" stroke-opacity="1.000000" stroke-width="0.575447"/>
		<rect id="Frame 2043683076" rx="16.975700" width="112.856773" height="72.649612" transform="translate(-115.731804 15.989628) rotate(10.000001)" fill="#B0AEFF" fill-opacity="1.000000"/>
		<path id="тик" d="M-87.51 53.63L-81.2 54.74L-80.23 49.27L-99.74 45.83L-100.71 51.3L-94.36 52.42L-96.88 66.61L-90.02 67.81L-87.51 53.63ZM-70.7 50.95L-77.55 49.75L-81.03 69.4L-74.65 70.53L-64.65 61.63L-66.48 71.97L-59.59 73.18L-56.11 53.53L-62.46 52.41L-72.52 61.25L-70.7 50.95ZM-46.82 68.21L-44.49 68.62L-41.17 76.43L-33.05 77.86L-38.27 66.4L-30 58.13L-37.29 56.84L-43.4 63.25L-45.87 62.81L-44.58 55.56L-51.47 54.34L-54.95 74L-48.06 75.21L-46.82 68.21Z" fill="#FFFFFF" fill-opacity="1.000000" fill-rule="evenodd"/>
		<path id="тик" d="M-81.2 54.74L-87.51 53.63L-90.02 67.81L-96.88 66.61L-94.36 52.42L-100.71 51.3L-99.74 45.83L-80.23 49.27L-81.2 54.74ZM-77.55 49.75L-70.7 50.95L-72.52 61.25L-62.46 52.41L-56.11 53.53L-59.59 73.18L-66.48 71.97L-64.65 61.63L-74.65 70.53L-81.03 69.4L-77.55 49.75ZM-44.49 68.62L-46.82 68.21L-48.06 75.21L-54.95 74L-51.47 54.34L-44.58 55.56L-45.87 62.81L-43.4 63.25L-37.29 56.84L-30 58.13L-38.27 66.4L-33.05 77.86L-41.17 76.43L-44.49 68.62Z" stroke="#202027" stroke-opacity="1.000000" stroke-width="0.575447"/>
		<rect id="Frame 2043683076" rx="16.975700" width="112.856773" height="72.649612" transform="translate(-115.731804 15.989628) rotate(10.000001)" stroke="#202027" stroke-opacity="1.000000" stroke-width="0.575447"/>
		<rect id="Frame 2043683074" rx="16.975700" width="223.856766" height="72.649612" transform="translate(2.833622 36.895878) rotate(10.000001)" fill="#B0AEFF" fill-opacity="1.000000"/>
		<path id="родимоп" d="M36.55 70.21Q34.98 69.25 33.02 68.9Q29.75 68.33 27.59 69.61Q27.18 69.86 26.81 70.16L27.16 68.21L20.6 67.05L15.87 93.74L22.76 94.96L24.31 86.18Q24.68 86.72 25.14 87.16Q26.74 88.74 29.43 89.21Q31.4 89.56 33.23 89.19Q33.89 89.05 34.52 88.82Q35.38 88.51 36.16 88.05Q37.54 87.21 38.63 85.88Q40.33 83.81 40.87 80.76Q41.41 77.71 40.52 75.18Q39.96 73.55 38.93 72.29Q38.37 71.6 37.67 71.02Q37.14 70.57 36.55 70.21ZM46.92 91.13Q49.12 92.69 52.06 93.21Q55.17 93.75 57.88 92.95Q57.95 92.93 58.02 92.91Q59.89 92.33 61.33 91.2Q62.02 90.65 62.61 89.98Q63.05 89.49 63.41 88.95Q64.56 87.21 64.96 84.97Q65.36 82.69 64.85 80.64Q64.7 80.05 64.47 79.48Q64.15 78.66 63.69 77.92Q62.73 76.37 61.16 75.2Q61.13 75.17 61.09 75.15Q58.8 73.45 55.66 72.9Q52.47 72.33 49.72 73.18Q47.99 73.71 46.62 74.72Q45.81 75.32 45.12 76.09Q44.6 76.68 44.18 77.33Q43.14 78.98 42.77 81.06Q42.38 83.27 42.86 85.28Q43.01 85.94 43.26 86.57Q43.61 87.43 44.1 88.21Q45.06 89.73 46.6 90.9Q46.76 91.02 46.92 91.13ZM152.79 109.8Q154.99 111.36 157.93 111.87Q161.04 112.42 163.75 111.62Q163.82 111.6 163.89 111.58Q165.76 111 167.2 109.86Q167.89 109.32 168.48 108.65Q168.92 108.16 169.28 107.61Q170.43 105.88 170.83 103.64Q171.23 101.36 170.72 99.31Q170.57 98.72 170.34 98.15Q170.02 97.33 169.56 96.59Q168.6 95.04 167.03 93.87Q167 93.84 166.96 93.82Q164.67 92.12 161.53 91.56Q158.34 91 155.59 91.85Q153.86 92.38 152.49 93.39Q151.68 93.98 150.99 94.75Q150.47 95.34 150.05 96Q149.01 97.65 148.64 99.73Q148.25 101.94 148.73 103.95Q148.88 104.6 149.13 105.24Q149.48 106.1 149.97 106.87Q150.93 108.4 152.47 109.57Q152.63 109.69 152.79 109.8ZM88.61 103.5L90.31 93.92L87.58 93.44L90.08 79.3L71.91 76.1L70.45 82.91Q69.69 86.33 68.66 88.11Q68.06 89.17 67.17 89.5Q66.58 89.72 65.86 89.61L65.13 89.48L63.44 99.06L69.86 100.2L70.58 96.13L82.95 98.31L82.23 102.38L88.61 103.5ZM102.64 81.52L95.78 80.31L92.3 99.96L98.69 101.09L108.68 92.2L106.85 102.53L113.74 103.74L117.22 84.09L110.87 82.97L100.81 91.81L102.64 81.52ZM139.29 97.59L137.46 107.93L143.66 109.02L147.11 89.36L140.61 88.21L132.78 97.41L129.11 86.19L121.86 84.91L118.38 104.56L124.59 105.66L126.44 95.17L129.79 104.78L132.72 105.29L139.29 97.59ZM192.62 117.65L196.11 98L175.79 94.42L172.31 114.07L179.16 115.28L181.68 101.1L188.28 102.26L185.77 116.44L192.62 117.65ZM30.96 83.37Q30.03 83.67 28.95 83.48Q27.86 83.29 27.09 82.69Q26.57 82.29 26.19 81.71Q26.11 81.58 26.04 81.46Q25.28 80.07 25.64 78.07Q25.99 76.08 27.18 75.04Q27.29 74.94 27.41 74.85Q27.96 74.43 28.58 74.23Q29.52 73.94 30.6 74.13Q31.69 74.32 32.46 74.92Q32.98 75.32 33.36 75.9Q33.43 76.02 33.5 76.15Q34.26 77.54 33.91 79.53Q33.56 81.53 32.37 82.57Q32.26 82.67 32.14 82.75Q31.59 83.17 30.96 83.37ZM55.05 87.62Q54.12 87.92 53.03 87.73Q51.94 87.53 51.17 86.94Q50.65 86.54 50.28 85.95Q50.22 85.86 50.17 85.77Q49.36 84.36 49.73 82.29Q50.08 80.28 51.28 79.25Q51.38 79.16 51.49 79.08Q52.03 78.68 52.63 78.49Q53.58 78.18 54.69 78.38Q55.8 78.57 56.58 79.18Q57.08 79.57 57.44 80.13Q57.52 80.25 57.59 80.37Q58.35 81.74 58 83.74Q57.63 85.82 56.39 86.87Q56.31 86.94 56.23 87Q55.67 87.42 55.05 87.62ZM160.92 106.29Q159.99 106.58 158.9 106.39Q157.81 106.2 157.04 105.6Q156.52 105.2 156.15 104.62Q156.09 104.53 156.03 104.44Q155.23 103.03 155.6 100.95Q155.95 98.95 157.15 97.92Q157.25 97.83 157.36 97.75Q157.9 97.35 158.5 97.16Q159.45 96.85 160.56 97.04Q161.67 97.24 162.45 97.85Q162.95 98.24 163.31 98.8Q163.39 98.91 163.46 99.03Q164.22 100.41 163.87 102.41Q163.5 104.49 162.26 105.54Q162.18 105.6 162.1 105.67Q161.54 106.09 160.92 106.29ZM75.41 88.69Q75.99 87.13 76.56 84.51L76.97 82.63L82.23 83.56L80.69 92.23L73.87 91.03Q74.84 90.23 75.41 88.69Z" fill="#FFFFFF" fill-opacity="1.000000" fill-rule="evenodd"/>
		<path id="родимоп" d="M33.02 68.9Q35.71 69.38 37.67 71.02Q39.65 72.66 40.52 75.18Q41.41 77.71 40.87 80.76Q40.33 83.81 38.63 85.88Q36.94 87.95 34.52 88.82Q32.11 89.69 29.43 89.21Q25.97 88.61 24.31 86.18L22.76 94.96L15.87 93.74L20.6 67.05L27.16 68.21L26.81 70.16Q29.14 68.22 33.02 68.9ZM28.95 83.48Q30.76 83.8 32.14 82.75Q33.52 81.71 33.91 79.53Q34.29 77.35 33.36 75.9Q32.42 74.45 30.6 74.13Q28.79 73.81 27.41 74.85Q26.02 75.9 25.64 78.07Q25.25 80.25 26.19 81.71Q27.13 83.16 28.95 83.48ZM52.06 93.21Q48.91 92.65 46.6 90.9Q44.29 89.14 43.26 86.57Q42.25 84 42.77 81.06Q43.28 78.15 45.12 76.09Q46.97 74.02 49.72 73.18Q52.47 72.33 55.66 72.9Q58.85 73.46 61.16 75.2Q63.47 76.93 64.47 79.48Q65.48 82.03 64.96 84.97Q64.44 87.91 62.61 89.98Q60.79 92.05 58.02 92.91Q55.25 93.77 52.06 93.21ZM53.03 87.73Q54.85 88.05 56.23 87Q57.61 85.96 58 83.74Q58.39 81.57 57.44 80.13Q56.5 78.7 54.69 78.38Q52.87 78.06 51.49 79.08Q50.12 80.11 49.73 82.29Q49.34 84.5 50.28 85.95Q51.22 87.4 53.03 87.73ZM90.31 93.92L88.61 103.5L82.23 102.38L82.95 98.31L70.58 96.13L69.86 100.2L63.44 99.06L65.13 89.48L65.86 89.61Q67.65 89.89 68.66 88.11Q69.69 86.33 70.45 82.91L71.91 76.1L90.08 79.3L87.58 93.44L90.31 93.92ZM76.56 84.51Q75.99 87.13 75.41 88.69Q74.84 90.23 73.87 91.03L80.69 92.23L82.23 83.56L76.97 82.63L76.56 84.51ZM95.78 80.31L102.64 81.52L100.81 91.81L110.87 82.97L117.22 84.09L113.74 103.74L106.85 102.53L108.68 92.2L98.69 101.09L92.3 99.96L95.78 80.31ZM137.46 107.93L139.29 97.59L132.72 105.29L129.79 104.78L126.44 95.17L124.59 105.66L118.38 104.56L121.86 84.91L129.11 86.19L132.78 97.41L140.61 88.21L147.11 89.36L143.66 109.02L137.46 107.93ZM157.93 111.87Q154.78 111.32 152.47 109.57Q150.16 107.81 149.13 105.24Q148.12 102.67 148.64 99.73Q149.15 96.82 150.99 94.75Q152.84 92.69 155.59 91.85Q158.34 91 161.53 91.56Q164.72 92.13 167.03 93.87Q169.34 95.6 170.34 98.15Q171.35 100.7 170.83 103.64Q170.31 106.58 168.48 108.65Q166.66 110.72 163.89 111.58Q161.12 112.44 157.93 111.87ZM158.9 106.39Q160.72 106.71 162.1 105.67Q163.48 104.63 163.87 102.41Q164.26 100.23 163.31 98.8Q162.37 97.36 160.56 97.04Q158.74 96.72 157.36 97.75Q155.99 98.78 155.6 100.95Q155.21 103.17 156.15 104.62Q157.09 106.07 158.9 106.39ZM196.11 98L192.62 117.65L185.77 116.44L188.28 102.26L181.68 101.1L179.16 115.28L172.31 114.07L175.79 94.42L196.11 98Z" stroke="#202027" stroke-opacity="1.000000" stroke-width="0.575447"/>
		<rect id="Frame 2043683074" rx="16.975700" width="223.856766" height="72.649612" transform="translate(2.833622 36.895878) rotate(10.000001)" stroke="#202027" stroke-opacity="1.000000" stroke-width="0.575447"/>
		<rect id="Frame 2043683073" rx="16.975700" width="121.856773" height="72.649612" transform="translate(230.712524 77.077034) rotate(10.000001)" fill="#B0AEFF" fill-opacity="1.000000"/>
		<path id="рыс" d="M264.55 110.42Q262.97 109.45 261.02 109.11Q257.75 108.53 255.58 109.82Q255.18 110.06 254.81 110.37L255.15 108.41L248.59 107.25L243.86 133.95L250.75 135.16L252.31 126.38Q252.68 126.92 253.13 127.37Q254.74 128.94 257.42 129.42Q259.4 129.77 261.23 129.39Q261.88 129.25 262.51 129.03Q263.38 128.72 264.15 128.25Q265.54 127.41 266.62 126.08Q268.32 124.01 268.86 120.96Q269.4 117.92 268.52 115.39Q267.95 113.75 266.93 112.49Q266.37 111.8 265.67 111.22Q265.13 110.78 264.55 110.42ZM306.87 136.79Q309.22 138.55 312.48 139.12Q315.81 139.71 318.49 138.71Q320.06 138.12 321.22 137.07Q322.04 136.33 322.65 135.35L317.8 131.68Q316.66 133.2 315.22 133.58Q314.37 133.81 313.41 133.64Q312.3 133.44 311.5 132.84Q310.97 132.43 310.57 131.85Q310.46 131.69 310.37 131.52Q309.62 130.14 309.97 128.17Q310.3 126.28 311.43 125.26Q311.6 125.11 311.79 124.98Q312.34 124.59 312.95 124.39Q313.93 124.09 315.07 124.29Q316.03 124.46 316.75 124.96Q317.97 125.82 318.52 127.63L324.33 125.84Q324.1 124.71 323.58 123.73Q322.86 122.35 321.58 121.26Q319.41 119.4 316.07 118.81Q312.81 118.24 310.01 119.08Q308.05 119.66 306.56 120.83Q305.92 121.34 305.36 121.96Q304.94 122.43 304.58 122.95Q303.41 124.69 303.01 126.95Q302.62 129.16 303.1 131.17Q303.25 131.82 303.5 132.46Q303.81 133.24 304.24 133.94Q305.24 135.56 306.87 136.79ZM289.6 122.56Q287.95 120.51 284.07 119.79L279.68 119.02L280.76 112.93L273.91 111.72L270.43 131.37L280.8 133.2Q284.93 133.97 287.53 132.52Q288.41 132.02 289.07 131.31Q290.32 129.94 290.71 127.77Q291.14 125.34 290.25 123.56Q289.98 123.04 289.6 122.56ZM301.47 116.58L294.62 115.37L291.14 135.02L297.99 136.23L301.47 116.58ZM258.96 123.58Q258.03 123.87 256.94 123.68Q255.86 123.49 255.08 122.89Q254.56 122.49 254.19 121.91Q254.11 121.79 254.04 121.66Q253.28 120.27 253.63 118.28Q253.99 116.28 255.18 115.24Q255.29 115.14 255.4 115.05Q255.96 114.64 256.58 114.44Q257.51 114.14 258.6 114.33Q259.68 114.52 260.46 115.12Q260.97 115.52 261.35 116.1Q261.43 116.23 261.5 116.35Q262.26 117.74 261.9 119.73Q261.55 121.73 260.36 122.77Q260.25 122.87 260.14 122.96Q259.58 123.38 258.96 123.58ZM283.16 128.02Q282.38 128.62 280.95 128.37L278.12 127.83L278.94 123.22L281.77 123.72Q283.07 123.99 283.62 124.65Q283.69 124.73 283.74 124.81Q284.16 125.44 283.98 126.47Q283.79 127.53 283.16 128.02Z" fill="#FFFFFF" fill-opacity="1.000000" fill-rule="evenodd"/>
		<path id="рыс" d="M261.02 109.11Q263.7 109.58 265.67 111.22Q267.64 112.86 268.52 115.39Q269.4 117.92 268.86 120.96Q268.32 124.01 266.62 126.08Q264.93 128.16 262.51 129.03Q260.1 129.89 257.42 129.42Q253.97 128.81 252.31 126.38L250.75 135.16L243.86 133.95L248.59 107.25L255.15 108.41L254.81 110.37Q257.13 108.42 261.02 109.11ZM256.94 123.68Q258.76 124 260.14 122.96Q261.52 121.91 261.9 119.73Q262.29 117.56 261.35 116.1Q260.41 114.65 258.6 114.33Q256.78 114.01 255.4 115.05Q254.02 116.1 253.63 118.28Q253.25 120.45 254.19 121.91Q255.13 123.36 256.94 123.68ZM284.07 119.79Q287.95 120.51 289.6 122.56Q291.26 124.61 290.71 127.77Q290.12 131.06 287.53 132.52Q284.93 133.97 280.8 133.2L270.43 131.37L273.91 111.72L280.76 112.93L279.68 119.02L284.07 119.79ZM294.62 115.37L301.47 116.58L297.99 136.23L291.14 135.02L294.62 115.37ZM280.95 128.37Q283.56 128.83 283.98 126.47Q284.18 125.31 283.62 124.65Q283.07 123.99 281.77 123.72L278.94 123.22L278.12 127.83L280.95 128.37ZM312.48 139.12Q309.22 138.55 306.87 136.79Q304.53 135.03 303.5 132.46Q302.49 129.89 303.01 126.95Q303.53 124.01 305.36 121.96Q307.2 119.91 310.01 119.08Q312.81 118.24 316.07 118.81Q319.41 119.4 321.58 121.26Q323.76 123.13 324.33 125.84L318.52 127.63Q317.64 124.74 315.07 124.29Q313.22 123.96 311.79 124.98Q310.35 126 309.97 128.17Q309.58 130.39 310.57 131.85Q311.56 133.31 313.41 133.64Q315.99 134.09 317.8 131.68L322.65 135.35Q321.18 137.7 318.49 138.71Q315.81 139.71 312.48 139.12Z" stroke="#202027" stroke-opacity="1.000000" stroke-width="0.575447"/>
		<rect id="Frame 2043683073" rx="16.975700" width="121.856773" height="72.649612" transform="translate(230.712524 77.077034) rotate(10.000001)" stroke="#202027" stroke-opacity="1.000000" stroke-width="0.575447"/>
		<rect id="Frame 2043683075" rx="16.975700" width="112.856773" height="72.649612" transform="translate(358.141235 99.546272) rotate(10.000001)" fill="#B0AEFF" fill-opacity="1.000000"/>
		<path id="тик" d="M386.36 137.19L392.68 138.3L393.65 132.83L374.13 129.39L373.16 134.86L379.51 135.98L377 150.16L383.85 151.37L386.36 137.19ZM403.18 134.51L396.32 133.3L392.84 152.96L399.23 154.08L409.22 145.19L407.39 155.52L414.28 156.74L417.76 137.08L411.41 135.96L401.35 144.81L403.18 134.51ZM427.05 151.77L429.38 152.18L432.71 159.99L440.83 161.42L435.61 149.95L443.87 141.69L436.59 140.4L430.48 146.8L428.01 146.37L429.29 139.12L422.4 137.9L418.92 157.56L425.81 158.77L427.05 151.77Z" fill="#FFFFFF" fill-opacity="1.000000" fill-rule="evenodd"/>
		<path id="тик" d="M392.68 138.3L386.36 137.19L383.85 151.37L377 150.16L379.51 135.98L373.16 134.86L374.13 129.39L393.65 132.83L392.68 138.3ZM396.32 133.3L403.18 134.51L401.35 144.81L411.41 135.96L417.76 137.08L414.28 156.74L407.39 155.52L409.22 145.19L399.23 154.08L392.84 152.96L396.32 133.3ZM429.38 152.18L427.05 151.77L425.81 158.77L418.92 157.56L422.4 137.9L429.29 139.12L428.01 146.37L430.48 146.8L436.59 140.4L443.87 141.69L435.61 149.95L440.83 161.42L432.71 159.99L429.38 152.18Z" stroke="#202027" stroke-opacity="1.000000" stroke-width="0.575447"/>
		<rect id="Frame 2043683075" rx="16.975700" width="112.856773" height="72.649612" transform="translate(358.141235 99.546272) rotate(10.000001)" stroke="#202027" stroke-opacity="1.000000" stroke-width="0.575447"/>
		<rect id="Frame 2043683095" rx="19.750000" width="110.932220" height="72.725060" transform="translate(-114.201172 97.057861) rotate(10.000001)" fill="#B0AEFF" fill-opacity="1.000000"/>
		<path id="топ" d="M-75.71 150.34Q-73.5 151.89 -70.56 152.41Q-67.45 152.96 -64.74 152.16Q-64.67 152.14 -64.6 152.12Q-62.73 151.54 -61.29 150.4Q-60.6 149.86 -60.01 149.19Q-59.58 148.7 -59.22 148.15Q-58.06 146.42 -57.66 144.18Q-57.26 141.9 -57.78 139.85Q-57.93 139.26 -58.15 138.69Q-58.47 137.87 -58.93 137.13Q-59.9 135.58 -61.47 134.41Q-61.5 134.38 -61.53 134.36Q-63.82 132.66 -66.97 132.1Q-70.15 131.54 -72.91 132.39Q-74.63 132.92 -76 133.92Q-76.82 134.53 -77.5 135.29Q-78.03 135.88 -78.44 136.54Q-79.49 138.19 -79.85 140.27Q-80.25 142.48 -79.77 144.49Q-79.61 145.14 -79.36 145.78Q-79.02 146.64 -78.53 147.41Q-77.56 148.94 -76.03 150.11Q-75.87 150.23 -75.71 150.34ZM-85.91 134.74L-79.6 135.86L-78.63 130.38L-98.14 126.94L-99.11 132.42L-92.77 133.53L-95.28 147.72L-88.42 148.93L-85.91 134.74ZM-35.87 158.19L-32.39 138.54L-52.7 134.96L-56.18 154.61L-49.33 155.82L-46.82 141.64L-40.21 142.8L-42.72 156.98L-35.87 158.19ZM-67.58 146.83Q-68.51 147.12 -69.59 146.93Q-70.68 146.74 -71.45 146.14Q-71.97 145.74 -72.35 145.16Q-72.41 145.07 -72.46 144.98Q-73.26 143.57 -72.89 141.49Q-72.54 139.49 -71.34 138.46Q-71.24 138.37 -71.13 138.29Q-70.6 137.89 -69.99 137.7Q-69.05 137.39 -67.94 137.58Q-66.83 137.78 -66.04 138.39Q-65.55 138.78 -65.18 139.34Q-65.1 139.45 -65.04 139.57Q-64.27 140.95 -64.62 142.95Q-64.99 145.03 -66.23 146.08Q-66.31 146.14 -66.4 146.21Q-66.95 146.63 -67.58 146.83Z" fill="#FFFFFF" fill-opacity="1.000000" fill-rule="evenodd"/>
		<path id="топ" d="M-79.6 135.86L-85.91 134.74L-88.42 148.93L-95.28 147.72L-92.77 133.53L-99.11 132.42L-98.14 126.94L-78.63 130.38L-79.6 135.86ZM-70.56 152.41Q-73.72 151.86 -76.03 150.11Q-78.34 148.35 -79.36 145.78Q-80.37 143.21 -79.85 140.27Q-79.34 137.36 -77.5 135.29Q-75.66 133.23 -72.91 132.39Q-70.15 131.54 -66.97 132.1Q-63.78 132.67 -61.47 134.41Q-59.15 136.14 -58.15 138.69Q-57.14 141.24 -57.66 144.18Q-58.18 147.12 -60.01 149.19Q-61.83 151.26 -64.6 152.12Q-67.38 152.98 -70.56 152.41ZM-69.59 146.93Q-67.78 147.25 -66.4 146.21Q-65.02 145.17 -64.62 142.95Q-64.24 140.77 -65.18 139.34Q-66.12 137.9 -67.94 137.58Q-69.75 137.26 -71.13 138.29Q-72.51 139.32 -72.89 141.49Q-73.29 143.71 -72.35 145.16Q-71.41 146.61 -69.59 146.93ZM-32.39 138.54L-35.87 158.19L-42.72 156.98L-40.21 142.8L-46.82 141.64L-49.33 155.82L-56.18 154.61L-52.7 134.96L-32.39 138.54Z" stroke="#202027" stroke-opacity="1.000000" stroke-width="0.575447"/>
		<rect id="Frame 2043683095" rx="19.750000" width="110.932220" height="72.725060" transform="translate(-114.201172 97.057861) rotate(10.000001)" stroke="#202027" stroke-opacity="1.000000" stroke-width="0.500000"/>
		<rect id="Frame 2043683072" rx="19.750000" width="345.932220" height="72.725060" transform="translate(2.394531 117.616943) rotate(10.000001)" fill="#B0AEFF" fill-opacity="1.000000"/>
		<path id="ытсиммаргорп" d="M72.9 176.37Q75.25 178.12 78.5 178.7Q81.84 179.29 84.52 178.28Q86.09 177.69 87.25 176.65Q88.07 175.9 88.68 174.92L83.83 171.26Q82.69 172.77 81.25 173.15Q80.4 173.38 79.44 173.21Q78.33 173.02 77.53 172.41Q76.99 172.01 76.6 171.42Q76.49 171.26 76.39 171.09Q75.65 169.72 76 167.75Q76.33 165.85 77.46 164.83Q77.63 164.68 77.81 164.55Q78.37 164.16 78.98 163.97Q79.96 163.66 81.1 163.86Q82.05 164.03 82.78 164.54Q84 165.39 84.55 167.2L90.36 165.41Q90.13 164.29 89.61 163.3Q88.89 161.93 87.61 160.84Q85.44 158.98 82.1 158.39Q78.84 157.81 76.04 158.65Q74.08 159.23 72.59 160.41Q71.95 160.91 71.39 161.53Q70.97 162 70.61 162.53Q69.44 164.26 69.04 166.52Q68.65 168.74 69.13 170.74Q69.28 171.4 69.53 172.03Q69.84 172.81 70.27 173.51Q71.27 175.14 72.9 176.37ZM195.19 180.63Q193.01 177.94 188.12 177.08Q187.98 177.06 187.85 177.04Q185.62 176.68 183.31 176.85Q180.87 177.04 179.04 177.84L180.53 182.93Q181.69 182.3 183.23 182.11Q184.76 181.91 186.17 182.16Q188.67 182.6 189.46 184.01Q189.92 184.84 189.79 186.01L185.87 185.32Q181.41 184.54 178.99 185.7Q177.97 186.19 177.29 186.99Q176.37 188.06 176.09 189.66Q175.86 190.96 176.14 192.14Q176.24 192.53 176.39 192.91Q176.44 193.03 176.5 193.15Q177.12 194.51 178.52 195.51Q180.06 196.6 182.34 197.01Q185.59 197.58 187.53 196.24Q188.16 195.81 188.66 195.16L188.21 197.7L194.63 198.84L196.56 187.92Q197.29 183.82 195.64 181.24Q195.43 180.92 195.19 180.63ZM218.2 183.07Q216.62 182.11 214.67 181.76Q211.4 181.19 209.23 182.47Q208.83 182.71 208.46 183.02L208.8 181.07L202.24 179.91L197.51 206.6L204.4 207.82L205.96 199.04Q206.33 199.57 206.78 200.02Q208.38 201.6 211.07 202.07Q213.05 202.42 214.88 202.05Q215.53 201.91 216.16 201.68Q217.03 201.37 217.8 200.91Q219.19 200.07 220.27 198.74Q221.97 196.66 222.51 193.62Q223.05 190.57 222.17 188.04Q221.6 186.41 220.58 185.15Q220.02 184.46 219.32 183.88Q218.78 183.43 218.2 183.07ZM246.95 207.24Q249.16 208.79 252.09 209.31Q255.2 209.86 257.92 209.06Q257.99 209.04 258.05 209.02Q259.93 208.43 261.37 207.3Q262.06 206.75 262.65 206.08Q263.08 205.59 263.44 205.05Q264.6 203.31 264.99 201.07Q265.4 198.79 264.88 196.74Q264.73 196.15 264.51 195.58Q264.18 194.76 263.72 194.02Q262.76 192.47 261.19 191.3Q261.16 191.28 261.13 191.25Q258.84 189.55 255.69 189Q252.5 188.43 249.75 189.28Q248.02 189.81 246.65 190.82Q245.84 191.42 245.15 192.19Q244.63 192.78 244.22 193.43Q243.17 195.08 242.8 197.16Q242.41 199.38 242.89 201.38Q243.05 202.04 243.3 202.67Q243.64 203.53 244.13 204.31Q245.1 205.83 246.63 207Q246.79 207.12 246.95 207.24ZM285.91 195.01Q284.34 194.05 282.38 193.7Q279.11 193.13 276.95 194.41Q276.54 194.65 276.17 194.96L276.52 193.01L269.96 191.85L265.23 218.54L272.12 219.76L273.67 210.98Q274.04 211.51 274.5 211.96Q276.1 213.54 278.79 214.01Q280.76 214.36 282.59 213.99Q283.25 213.85 283.88 213.62Q284.74 213.31 285.52 212.85Q286.9 212.01 287.99 210.68Q289.69 208.6 290.23 205.56Q290.77 202.51 289.88 199.98Q289.32 198.35 288.29 197.09Q287.73 196.4 287.03 195.82Q286.5 195.37 285.91 195.01ZM36.15 158.7Q34.5 156.65 30.63 155.93L26.24 155.16L27.31 149.07L20.46 147.86L16.98 167.51L27.36 169.34Q31.49 170.11 34.08 168.66Q34.97 168.16 35.62 167.45Q36.87 166.08 37.26 163.91Q37.69 161.48 36.8 159.7Q36.54 159.17 36.15 158.7ZM48.03 152.72L41.17 151.51L37.69 171.16L44.54 172.37L48.03 152.72ZM62.98 161L69.29 162.11L70.26 156.64L50.75 153.2L49.78 158.67L56.13 159.79L53.61 173.97L60.47 175.18L62.98 161ZM100.98 162.05L94.12 160.85L90.64 180.5L97.03 181.63L107.02 172.73L105.19 183.07L112.08 184.28L115.56 164.63L109.21 163.51L99.15 172.35L100.98 162.05ZM137.63 178.13L135.8 188.46L142 189.56L145.45 169.9L138.96 168.75L131.12 177.95L127.45 166.72L120.2 165.44L116.72 185.1L122.93 186.19L124.78 175.71L128.13 185.31L131.06 185.83L137.63 178.13ZM167.55 183.41L165.72 193.74L171.92 194.83L175.37 175.17L168.88 174.03L161.04 183.23L157.38 172L150.12 170.72L146.64 190.37L152.85 191.47L154.71 180.99L158.05 190.59L160.99 191.11L167.55 183.41ZM233.44 191.05L243.06 192.75L244.03 187.28L227.56 184.37L224.08 204.03L230.93 205.24L233.44 191.05ZM312.1 219.55L315.58 199.9L295.27 196.31L291.79 215.97L298.64 217.18L301.16 202.99L307.76 204.16L305.25 218.34L312.1 219.55ZM212.61 196.23Q211.68 196.53 210.59 196.34Q209.51 196.15 208.73 195.55Q208.21 195.15 207.84 194.56Q207.76 194.44 207.69 194.32Q206.93 192.93 207.28 190.93Q207.64 188.94 208.83 187.89Q208.94 187.8 209.05 187.71Q209.61 187.29 210.23 187.09Q211.16 186.8 212.25 186.99Q213.33 187.18 214.11 187.78Q214.62 188.18 215 188.76Q215.08 188.88 215.15 189.01Q215.91 190.4 215.55 192.39Q215.2 194.39 214.01 195.43Q213.9 195.53 213.79 195.61Q213.23 196.03 212.61 196.23ZM255.08 203.72Q254.15 204.02 253.06 203.83Q251.98 203.63 251.21 203.04Q250.69 202.64 250.31 202.05Q250.25 201.96 250.2 201.87Q249.4 200.46 249.76 198.39Q250.12 196.38 251.31 195.35Q251.42 195.27 251.53 195.18Q252.06 194.78 252.66 194.59Q253.61 194.28 254.72 194.48Q255.83 194.67 256.61 195.29Q257.11 195.68 257.48 196.23Q257.55 196.35 257.62 196.47Q258.39 197.84 258.03 199.85Q257.67 201.92 256.43 202.97Q256.35 203.04 256.26 203.1Q255.71 203.52 255.08 203.72ZM280.32 208.17Q279.39 208.47 278.31 208.28Q277.22 208.09 276.45 207.49Q275.93 207.09 275.55 206.5Q275.47 206.38 275.4 206.26Q274.64 204.87 275 202.87Q275.35 200.88 276.54 199.83Q276.65 199.74 276.76 199.65Q277.32 199.23 277.94 199.03Q278.88 198.74 279.96 198.93Q281.05 199.12 281.82 199.72Q282.34 200.12 282.72 200.7Q282.79 200.82 282.86 200.95Q283.62 202.34 283.27 204.33Q282.92 206.33 281.73 207.37Q281.62 207.47 281.5 207.55Q280.95 207.97 280.32 208.17ZM29.71 164.16Q28.94 164.76 27.5 164.51L24.67 163.97L25.49 159.36L28.32 159.86Q29.62 160.13 30.18 160.79Q30.24 160.87 30.3 160.95Q30.71 161.58 30.53 162.61Q30.34 163.67 29.71 164.16ZM186.96 192.89Q186.07 193.17 185.03 192.99Q183.84 192.78 183.24 192.12Q182.98 191.81 182.86 191.46Q182.73 191.03 182.82 190.55Q182.93 189.94 183.28 189.57Q184.09 188.72 186.18 189.08L189.15 189.61L188.85 191.31Q188.4 192.09 187.73 192.53Q187.5 192.68 187.24 192.79Q187.1 192.84 186.96 192.89Z" fill="#FFFFFF" fill-opacity="1.000000" fill-rule="evenodd"/>
		<path id="ытсиммаргорп" d="M30.63 155.93Q34.5 156.65 36.15 158.7Q37.82 160.75 37.26 163.91Q36.67 167.2 34.08 168.66Q31.49 170.11 27.36 169.34L16.98 167.51L20.46 147.86L27.31 149.07L26.24 155.16L30.63 155.93ZM41.17 151.51L48.03 152.72L44.54 172.37L37.69 171.16L41.17 151.51ZM27.5 164.51Q30.11 164.97 30.53 162.61Q30.74 161.45 30.18 160.79Q29.62 160.13 28.32 159.86L25.49 159.36L24.67 163.97L27.5 164.51ZM69.29 162.11L62.98 161L60.47 175.18L53.61 173.97L56.13 159.79L49.78 158.67L50.75 153.2L70.26 156.64L69.29 162.11ZM78.5 178.7Q75.25 178.12 72.9 176.37Q70.56 174.6 69.53 172.03Q68.52 169.46 69.04 166.52Q69.56 163.58 71.39 161.53Q73.23 159.48 76.04 158.65Q78.84 157.81 82.1 158.39Q85.44 158.98 87.61 160.84Q89.79 162.7 90.36 165.41L84.55 167.2Q83.67 164.32 81.1 163.86Q79.25 163.54 77.81 164.55Q76.38 165.57 76 167.75Q75.61 169.96 76.6 171.42Q77.59 172.89 79.44 173.21Q82.02 173.67 83.83 171.26L88.68 174.92Q87.21 177.28 84.52 178.28Q81.84 179.29 78.5 178.7ZM94.12 160.85L100.98 162.05L99.15 172.35L109.21 163.51L115.56 164.63L112.08 184.28L105.19 183.07L107.02 172.73L97.03 181.63L90.64 180.5L94.12 160.85ZM135.8 188.46L137.63 178.13L131.06 185.83L128.13 185.31L124.78 175.71L122.93 186.19L116.72 185.1L120.2 165.44L127.45 166.72L131.12 177.95L138.96 168.75L145.45 169.9L142 189.56L135.8 188.46ZM165.72 193.74L167.55 183.41L160.99 191.11L158.05 190.59L154.71 180.99L152.85 191.47L146.64 190.37L150.12 170.72L157.38 172L161.04 183.23L168.88 174.03L175.37 175.17L171.92 194.83L165.72 193.74ZM188.12 177.08Q193.01 177.94 195.19 180.63Q197.38 183.32 196.56 187.92L194.63 198.84L188.21 197.7L188.66 195.16Q186.66 197.77 182.34 197.01Q180.06 196.6 178.52 195.51Q177 194.42 176.39 192.91Q175.78 191.4 176.09 189.66Q176.59 186.86 178.99 185.7Q181.41 184.54 185.87 185.32L189.79 186.01Q190.16 182.87 186.17 182.16Q184.76 181.91 183.23 182.11Q181.69 182.3 180.53 182.93L179.04 177.84Q180.87 177.04 183.31 176.85Q185.76 176.67 188.12 177.08ZM185.03 192.99Q186.24 193.2 187.24 192.79Q188.25 192.36 188.85 191.31L189.15 189.61L186.18 189.08Q183.17 188.55 182.82 190.55Q182.66 191.45 183.24 192.12Q183.84 192.78 185.03 192.99ZM214.67 181.76Q217.35 182.24 219.32 183.88Q221.29 185.51 222.17 188.04Q223.05 190.57 222.51 193.62Q221.97 196.66 220.27 198.74Q218.58 200.81 216.16 201.68Q213.76 202.55 211.07 202.07Q207.62 201.46 205.96 199.04L204.4 207.82L197.51 206.6L202.24 179.91L208.8 181.07L208.46 183.02Q210.78 181.08 214.67 181.76ZM210.59 196.34Q212.41 196.66 213.79 195.61Q215.17 194.57 215.55 192.39Q215.94 190.21 215 188.76Q214.06 187.31 212.25 186.99Q210.43 186.67 209.05 187.71Q207.67 188.76 207.28 190.93Q206.9 193.11 207.84 194.56Q208.78 196.02 210.59 196.34ZM243.06 192.75L233.44 191.05L230.93 205.24L224.08 204.03L227.56 184.37L244.03 187.28L243.06 192.75ZM252.09 209.31Q248.94 208.75 246.63 207Q244.32 205.24 243.3 202.67Q242.28 200.1 242.8 197.16Q243.32 194.26 245.15 192.19Q247 190.12 249.75 189.28Q252.5 188.43 255.69 189Q258.88 189.56 261.19 191.3Q263.51 193.03 264.51 195.58Q265.51 198.13 264.99 201.07Q264.47 204.01 262.65 206.08Q260.83 208.15 258.05 209.02Q255.28 209.87 252.09 209.31ZM253.06 203.83Q254.88 204.15 256.26 203.1Q257.64 202.06 258.03 199.85Q258.42 197.67 257.48 196.23Q256.54 194.8 254.72 194.48Q252.91 194.16 251.53 195.18Q250.15 196.21 249.76 198.39Q249.37 200.6 250.31 202.05Q251.25 203.51 253.06 203.83ZM282.38 193.7Q285.07 194.18 287.03 195.82Q289.01 197.45 289.88 199.98Q290.77 202.51 290.23 205.56Q289.69 208.6 287.99 210.68Q286.3 212.75 283.88 213.62Q281.47 214.49 278.79 214.01Q275.33 213.4 273.67 210.98L272.12 219.76L265.23 218.54L269.96 191.85L276.52 193.01L276.17 194.96Q278.5 193.02 282.38 193.7ZM278.31 208.28Q280.12 208.6 281.5 207.55Q282.88 206.51 283.27 204.33Q283.65 202.15 282.72 200.7Q281.78 199.25 279.96 198.93Q278.15 198.61 276.76 199.65Q275.38 200.7 275 202.87Q274.61 205.05 275.55 206.5Q276.49 207.96 278.31 208.28ZM315.58 199.9L312.1 219.55L305.25 218.34L307.76 204.16L301.16 202.99L298.64 217.18L291.79 215.97L295.27 196.31L315.58 199.9Z" stroke="#202027" stroke-opacity="1.000000" stroke-width="0.575447"/>
		<rect id="Frame 2043683072" rx="19.750000" width="345.932220" height="72.725060" transform="translate(2.394531 117.616943) rotate(10.000001)" stroke="#202027" stroke-opacity="1.000000" stroke-width="0.500000"/>
		<rect id="Frame 2043683094" rx="19.750000" width="110.932220" height="72.725060" transform="translate(350.419922 178.983154) rotate(10.000001)" fill="#B0AEFF" fill-opacity="1.000000"/>
		<path id="топ" d="M388.92 232.27Q391.12 233.82 394.06 234.34Q397.17 234.89 399.88 234.09Q399.95 234.07 400.02 234.05Q401.89 233.46 403.33 232.33Q404.02 231.78 404.61 231.11Q405.04 230.62 405.41 230.08Q406.56 228.34 406.96 226.1Q407.36 223.82 406.84 221.77Q406.69 221.18 406.47 220.61Q406.15 219.79 405.69 219.05Q404.72 217.5 403.16 216.33Q403.12 216.31 403.09 216.28Q400.8 214.58 397.66 214.03Q394.47 213.47 391.71 214.31Q389.99 214.84 388.62 215.85Q387.81 216.45 387.12 217.22Q386.6 217.81 386.18 218.47Q385.14 220.12 384.77 222.19Q384.38 224.41 384.86 226.42Q385.01 227.07 385.26 227.7Q385.61 228.57 386.1 229.34Q387.06 230.87 388.59 232.03Q388.75 232.15 388.92 232.27ZM378.71 216.67L385.02 217.78L385.99 212.31L366.48 208.87L365.51 214.34L371.86 215.46L369.34 229.64L376.2 230.85L378.71 216.67ZM428.75 240.12L432.23 220.46L411.92 216.88L408.44 236.54L415.29 237.75L417.8 223.56L424.41 224.73L421.9 238.91L428.75 240.12ZM397.05 228.75Q396.11 229.05 395.03 228.86Q393.94 228.67 393.17 228.07Q392.65 227.67 392.27 227.09Q392.22 227 392.16 226.9Q391.36 225.5 391.73 223.42Q392.08 221.42 393.28 220.39Q393.38 220.3 393.49 220.22Q394.03 219.82 394.63 219.62Q395.57 219.31 396.68 219.51Q397.8 219.7 398.58 220.32Q399.08 220.71 399.44 221.26Q399.52 221.38 399.58 221.5Q400.35 222.87 400 224.88Q399.63 226.95 398.39 228Q398.31 228.07 398.22 228.13Q397.67 228.55 397.05 228.75Z" fill="#FFFFFF" fill-opacity="1.000000" fill-rule="evenodd"/>
		<path id="топ" d="M385.02 217.78L378.71 216.67L376.2 230.85L369.34 229.64L371.86 215.46L365.51 214.34L366.48 208.87L385.99 212.31L385.02 217.78ZM394.06 234.34Q390.91 233.78 388.59 232.03Q386.29 230.27 385.26 227.7Q384.25 225.13 384.77 222.19Q385.28 219.29 387.12 217.22Q388.96 215.15 391.71 214.31Q394.47 213.47 397.66 214.03Q400.84 214.59 403.16 216.33Q405.47 218.06 406.47 220.61Q407.48 223.17 406.96 226.1Q406.44 229.04 404.61 231.11Q402.79 233.19 400.02 234.05Q397.25 234.9 394.06 234.34ZM395.03 228.86Q396.84 229.18 398.22 228.13Q399.61 227.09 400 224.88Q400.38 222.7 399.44 221.26Q398.5 219.83 396.68 219.51Q394.87 219.19 393.49 220.22Q392.11 221.24 391.73 223.42Q391.34 225.63 392.27 227.09Q393.21 228.54 395.03 228.86ZM432.23 220.46L428.75 240.12L421.9 238.91L424.41 224.73L417.8 223.56L415.29 237.75L408.44 236.54L411.92 216.88L432.23 220.46Z" stroke="#202027" stroke-opacity="1.000000" stroke-width="0.575447"/>
		<rect id="Frame 2043683094" rx="19.750000" width="110.932220" height="72.725060" transform="translate(350.419922 178.983154) rotate(10.000001)" stroke="#202027" stroke-opacity="1.000000" stroke-width="0.500000"/>
		<rect id="Frame 2043683096" rx="19.750000" width="117.932220" height="72.725060" transform="translate(-84.275391 183.362061) rotate(10.000001)" fill="#B0AEFF" fill-opacity="1.000000"/>
		<path id="гим" d="M-60.27 220.29L-50.65 221.99L-49.68 216.52L-66.15 213.61L-69.63 233.27L-62.78 234.48L-60.27 220.29ZM-40.15 218.2L-47 216.99L-50.48 236.64L-44.1 237.77L-34.1 228.88L-35.93 239.21L-29.05 240.42L-25.56 220.77L-31.91 219.65L-41.97 228.49L-40.15 218.2ZM-3.49 234.27L-5.32 244.61L0.87 245.7L4.32 226.04L-2.17 224.89L-10.01 234.09L-13.67 222.87L-20.92 221.59L-24.41 241.24L-18.2 242.34L-16.34 231.85L-12.99 241.46L-10.06 241.97L-3.49 234.27Z" fill="#FFFFFF" fill-opacity="1.000000" fill-rule="evenodd"/>
		<path id="гим" d="M-50.65 221.99L-60.27 220.29L-62.78 234.48L-69.63 233.27L-66.15 213.61L-49.68 216.52L-50.65 221.99ZM-47 216.99L-40.15 218.2L-41.97 228.49L-31.91 219.65L-25.56 220.77L-29.05 240.42L-35.93 239.21L-34.1 228.88L-44.1 237.77L-50.48 236.64L-47 216.99ZM-5.32 244.61L-3.49 234.27L-10.06 241.97L-12.99 241.46L-16.34 231.85L-18.2 242.34L-24.41 241.24L-20.92 221.59L-13.67 222.87L-10.01 234.09L-2.17 224.89L4.32 226.04L0.87 245.7L-5.32 244.61Z" stroke="#202027" stroke-opacity="1.000000" stroke-width="0.575447"/>
		<rect id="Frame 2043683096" rx="19.750000" width="117.932220" height="72.725060" transform="translate(-84.275391 183.362061) rotate(10.000001)" stroke="#202027" stroke-opacity="1.000000" stroke-width="0.500000"/>
		<rect id="Frame 2043683093" rx="19.750000" width="192.932220" height="72.725060" transform="translate(39.213867 205.136475) rotate(10.000001)" fill="#B0AEFF" fill-opacity="1.000000"/>
		<path id="анидор" d="M72.35 240Q70.17 237.31 65.27 236.45Q65.14 236.42 65 236.4Q62.78 236.04 60.46 236.22Q58.02 236.4 56.2 237.2L57.69 242.3Q58.85 241.67 60.38 241.47Q61.92 241.28 63.32 241.53Q65.83 241.97 66.62 243.37Q67.08 244.21 66.94 245.38L63.03 244.69Q58.57 243.9 56.15 245.07Q55.12 245.56 54.44 246.36Q53.53 247.42 53.25 249.03Q53.02 250.33 53.3 251.5Q53.4 251.9 53.55 252.28Q53.6 252.4 53.65 252.52Q54.28 253.88 55.68 254.88Q57.21 255.97 59.5 256.37Q62.75 256.95 64.69 255.61Q65.32 255.17 65.81 254.53L65.36 257.07L71.78 258.2L73.72 247.29Q74.44 243.19 72.79 240.61Q72.59 240.29 72.35 240ZM158.16 272.61Q160.37 274.16 163.31 274.68Q166.42 275.23 169.13 274.43Q169.2 274.41 169.27 274.39Q171.14 273.8 172.58 272.67Q173.27 272.12 173.86 271.45Q174.29 270.96 174.66 270.42Q175.81 268.68 176.21 266.44Q176.61 264.16 176.09 262.11Q175.94 261.52 175.72 260.95Q175.4 260.13 174.94 259.39Q173.97 257.84 172.4 256.67Q172.37 256.65 172.34 256.62Q170.05 254.92 166.9 254.37Q163.72 253.81 160.96 254.65Q159.24 255.18 157.87 256.19Q157.06 256.79 156.37 257.56Q155.84 258.15 155.43 258.81Q154.38 260.46 154.02 262.53Q153.62 264.75 154.11 266.76Q154.26 267.41 154.51 268.04Q154.86 268.91 155.34 269.68Q156.31 271.21 157.84 272.37Q158 272.49 158.16 272.61ZM197.12 260.38Q195.55 259.42 193.6 259.07Q190.33 258.5 188.16 259.78Q187.75 260.03 187.38 260.34L187.73 258.38L181.17 257.22L176.44 283.92L183.33 285.13L184.89 276.35Q185.25 276.89 185.71 277.33Q187.31 278.91 190 279.39Q191.98 279.73 193.81 279.36Q194.46 279.22 195.09 279Q195.96 278.68 196.73 278.22Q198.12 277.38 199.2 276.05Q200.9 273.98 201.44 270.93Q201.98 267.88 201.1 265.35Q200.53 263.72 199.51 262.46Q198.94 261.77 198.25 261.19Q197.71 260.74 197.12 260.38ZM86.25 240.49L79.4 239.28L75.92 258.93L82.77 260.14L83.99 253.25L91.07 254.5L89.85 261.39L96.73 262.6L100.22 242.95L93.33 241.73L92.04 249.02L84.96 247.77L86.25 240.49ZM111.71 244.97L104.86 243.77L101.38 263.42L107.76 264.55L117.76 255.65L115.93 265.99L122.82 267.2L126.3 247.55L119.95 246.43L109.89 255.27L111.71 244.97ZM149.99 276.18L151.69 266.6L148.96 266.12L151.46 251.98L133.29 248.78L131.83 255.59Q131.07 259.01 130.04 260.79Q129.43 261.85 128.55 262.18Q127.96 262.4 127.24 262.29L126.51 262.16L124.81 271.74L131.23 272.88L131.95 268.81L144.32 270.99L143.6 275.06L149.99 276.18ZM166.29 269.09Q165.36 269.39 164.28 269.2Q163.19 269.01 162.42 268.41Q161.9 268.01 161.52 267.43Q161.47 267.34 161.41 267.24Q160.61 265.84 160.98 263.76Q161.33 261.76 162.53 260.73Q162.63 260.64 162.74 260.55Q163.28 260.16 163.88 259.96Q164.82 259.65 165.93 259.85Q167.04 260.04 167.83 260.66Q168.33 261.05 168.69 261.6Q168.77 261.72 168.83 261.84Q169.6 263.21 169.25 265.22Q168.88 267.29 167.64 268.34Q167.56 268.41 167.47 268.47Q166.92 268.89 166.29 269.09ZM191.54 273.54Q190.6 273.84 189.52 273.65Q188.43 273.46 187.66 272.86Q187.14 272.46 186.76 271.88Q186.69 271.75 186.62 271.63Q185.86 270.24 186.21 268.25Q186.57 266.25 187.75 265.21Q187.86 265.11 187.98 265.02Q188.53 264.6 189.16 264.4Q190.09 264.11 191.17 264.3Q192.26 264.49 193.03 265.09Q193.55 265.49 193.93 266.07Q194.01 266.19 194.08 266.32Q194.84 267.71 194.48 269.7Q194.13 271.7 192.94 272.74Q192.83 272.84 192.72 272.93Q192.16 273.34 191.54 273.54ZM136.79 261.37Q137.36 259.81 137.94 257.19L138.34 255.31L143.6 256.24L142.07 264.91L135.25 263.71Q136.21 262.91 136.79 261.37ZM64.11 252.26Q63.23 252.54 62.19 252.36Q60.99 252.15 60.4 251.48Q60.13 251.18 60.02 250.82Q59.89 250.4 59.98 249.91Q60.08 249.31 60.44 248.93Q61.25 248.08 63.34 248.45L66.31 248.97L66 250.67Q65.56 251.46 64.89 251.89Q64.66 252.04 64.4 252.15Q64.26 252.21 64.11 252.26Z" fill="#FFFFFF" fill-opacity="1.000000" fill-rule="evenodd"/>
		<path id="анидор" d="M65.27 236.45Q70.17 237.31 72.35 240Q74.53 242.68 73.72 247.29L71.78 258.2L65.36 257.07L65.81 254.53Q63.82 257.14 59.5 256.37Q57.21 255.97 55.68 254.88Q54.16 253.79 53.55 252.28Q52.94 250.76 53.25 249.03Q53.74 246.23 56.15 245.07Q58.57 243.9 63.03 244.69L66.94 245.38Q67.32 242.23 63.32 241.53Q61.92 241.28 60.38 241.47Q58.85 241.67 57.69 242.3L56.2 237.2Q58.02 236.4 60.46 236.22Q62.92 236.03 65.27 236.45ZM62.19 252.36Q63.39 252.57 64.4 252.15Q65.41 251.73 66 250.67L66.31 248.97L63.34 248.45Q60.33 247.92 59.98 249.91Q59.82 250.82 60.4 251.48Q60.99 252.15 62.19 252.36ZM79.4 239.28L86.25 240.49L84.96 247.77L92.04 249.02L93.33 241.73L100.22 242.95L96.73 262.6L89.85 261.39L91.07 254.5L83.99 253.25L82.77 260.14L75.92 258.93L79.4 239.28ZM104.86 243.77L111.71 244.97L109.89 255.27L119.95 246.43L126.3 247.55L122.82 267.2L115.93 265.99L117.76 255.65L107.76 264.55L101.38 263.42L104.86 243.77ZM151.69 266.6L149.99 276.18L143.6 275.06L144.32 270.99L131.95 268.81L131.23 272.88L124.81 271.74L126.51 262.16L127.24 262.29Q129.02 262.57 130.04 260.79Q131.07 259.01 131.83 255.59L133.29 248.78L151.46 251.98L148.96 266.12L151.69 266.6ZM137.94 257.19Q137.36 259.81 136.79 261.37Q136.21 262.91 135.25 263.71L142.07 264.91L143.6 256.24L138.34 255.31L137.94 257.19ZM163.31 274.68Q160.15 274.12 157.84 272.37Q155.53 270.61 154.51 268.04Q153.5 265.47 154.02 262.53Q154.53 259.63 156.37 257.56Q158.21 255.49 160.96 254.65Q163.72 253.81 166.9 254.37Q170.09 254.93 172.4 256.67Q174.72 258.4 175.72 260.95Q176.73 263.51 176.21 266.44Q175.69 269.38 173.86 271.45Q172.04 273.53 169.27 274.39Q166.49 275.24 163.31 274.68ZM164.28 269.2Q166.09 269.52 167.47 268.47Q168.86 267.43 169.25 265.22Q169.63 263.04 168.69 261.6Q167.75 260.17 165.93 259.85Q164.12 259.53 162.74 260.55Q161.36 261.58 160.98 263.76Q160.59 265.97 161.52 267.43Q162.46 268.88 164.28 269.2ZM193.6 259.07Q196.28 259.55 198.25 261.19Q200.22 262.83 201.1 265.35Q201.98 267.88 201.44 270.93Q200.9 273.98 199.2 276.05Q197.51 278.13 195.09 279Q192.68 279.86 190 279.39Q186.55 278.78 184.89 276.35L183.33 285.13L176.44 283.92L181.17 257.22L187.73 258.38L187.38 260.34Q189.71 258.39 193.6 259.07ZM189.52 273.65Q191.33 273.97 192.72 272.93Q194.1 271.88 194.48 269.7Q194.87 267.53 193.93 266.07Q192.99 264.62 191.17 264.3Q189.36 263.98 187.98 265.02Q186.6 266.07 186.21 268.25Q185.83 270.42 186.76 271.88Q187.7 273.33 189.52 273.65Z" stroke="#202027" stroke-opacity="1.000000" stroke-width="0.575447"/>
		<rect id="Frame 2043683093" rx="19.750000" width="192.932220" height="72.725060" transform="translate(39.213867 205.136475) rotate(10.000001)" stroke="#202027" stroke-opacity="1.000000" stroke-width="0.500000"/>
		<rect id="Frame 2043683095" rx="19.750000" width="117.932220" height="72.725060" transform="translate(236.563477 239.934814) rotate(10.000001)" fill="#B0AEFF" fill-opacity="1.000000"/>
		<path id="гим" d="M260.57 276.86L270.19 278.56L271.16 273.09L254.69 270.18L251.21 289.84L258.06 291.05L260.57 276.86ZM280.69 274.77L273.84 273.56L270.36 293.22L276.74 294.34L286.74 285.45L284.91 295.78L291.79 297L295.28 277.34L288.93 276.22L278.87 285.07L280.69 274.77ZM317.35 290.85L315.52 301.18L321.71 302.27L325.16 282.61L318.67 281.47L310.83 290.67L307.17 279.44L299.92 278.16L296.43 297.81L302.64 298.91L304.5 288.43L307.85 298.03L310.78 298.54L317.35 290.85Z" fill="#FFFFFF" fill-opacity="1.000000" fill-rule="evenodd"/>
		<path id="гим" d="M270.19 278.56L260.57 276.86L258.06 291.05L251.21 289.84L254.69 270.18L271.16 273.09L270.19 278.56ZM273.84 273.56L280.69 274.77L278.87 285.07L288.93 276.22L295.28 277.34L291.79 297L284.91 295.78L286.74 285.45L276.74 294.34L270.36 293.22L273.84 273.56ZM315.52 301.18L317.35 290.85L310.78 298.54L307.85 298.03L304.5 288.43L302.64 298.91L296.43 297.81L299.92 278.16L307.17 279.44L310.83 290.67L318.67 281.47L325.16 282.61L321.71 302.27L315.52 301.18Z" stroke="#202027" stroke-opacity="1.000000" stroke-width="0.575447"/>
		<rect id="Frame 2043683095" rx="19.750000" width="117.932220" height="72.725060" transform="translate(236.563477 239.934814) rotate(10.000001)" stroke="#202027" stroke-opacity="1.000000" stroke-width="0.500000"/>
	</g>
</svg>
